<svg width="24" height="24" viewBox="0 0 24 24" fill="none" xmlns="http://www.w3.org/2000/svg">
<path d="M17.9153 10.8652C18.3586 11.1291 18.9331 10.9826 19.1968 10.5381C19.4603 10.0944 19.3145 9.52039 18.87 9.25649C15.1591 7.05368 9.28713 6.84661 5.7548 7.91882C5.26031 8.06904 4.9816 8.59124 5.13135 9.08561C5.28109 9.57974 5.80364 9.85869 6.29777 9.70882C9.3749 8.77489 14.6919 8.95091 17.9153 10.8652ZM17.8097 13.7006C18.035 13.3344 17.9197 12.8544 17.5532 12.6287C14.4666 10.7318 9.95166 10.1981 6.31962 11.3001C5.90812 11.4255 5.67551 11.8602 5.79982 12.2725C5.92496 12.684 6.36046 12.9165 6.77279 12.7919C9.95214 11.8269 14.05 12.3053 16.7374 13.9573C17.1039 14.1825 17.5837 14.0675 17.8097 13.7006ZM16.5861 16.4235C16.7658 16.1298 16.6733 15.7459 16.3794 15.5664C13.7436 13.9557 10.476 13.5809 6.66675 14.4518C6.3306 14.5283 6.12116 14.8626 6.19806 15.198C6.2746 15.5333 6.60884 15.7436 6.94426 15.6667C10.4251 14.8715 13.3808 15.1957 15.7292 16.631C16.0227 16.8106 16.4065 16.7181 16.5861 16.4235ZM12.0001 2C17.523 2 22 6.47703 22 11.9999C22 17.5231 17.523 22 12.0001 22C6.47724 22 2 17.5231 2 11.9999C2 6.47703 6.47724 2 12.0001 2Z" fill="#0A0A0A"/>
</svg>
