<svg width="24" height="24" viewBox="0 0 24 24" fill="none" xmlns="http://www.w3.org/2000/svg">
<path d="M14.148 21.0845C13.9528 21.8271 13.2156 22 12.5 22C11.7844 22 11.0472 21.8271 10.8521 21.0845C10.562 19.974 10.0714 17.1913 10.0714 15.8965C10.0714 14.5232 11.2532 14.1875 12.5 14.1875C13.7468 14.1875 14.9286 14.5232 14.9286 15.8965C14.9286 17.1836 14.4402 19.966 14.148 21.0845ZM9.95254 13.2716C9.24321 12.5565 8.81574 11.5461 8.86029 10.4357C8.93823 8.4934 10.469 6.92184 12.3561 6.84664C14.43 6.76398 16.1429 8.47684 16.1429 10.5938C16.1429 11.6417 15.723 12.5905 15.0475 13.2716C14.946 13.3739 14.9564 13.5445 15.0713 13.6304C15.4247 13.8947 15.6959 14.2298 15.8771 14.6212C15.9431 14.7639 16.1236 14.8032 16.2356 14.695C17.3295 13.6387 18.0022 12.1254 17.9626 10.4542C17.8922 7.47742 15.5494 5.05547 12.658 4.97105C9.57315 4.88098 7.03571 7.43809 7.03571 10.5938C7.03571 12.2094 7.70099 13.668 8.76417 14.6949C8.87623 14.8031 9.05678 14.764 9.12288 14.6212C9.30404 14.2297 9.57532 13.8947 9.92867 13.6304C10.0436 13.5445 10.054 13.3739 9.95254 13.2716ZM12.5 2C7.80238 2 4 5.91348 4 10.75C4 14.2653 5.99606 17.2206 8.77135 18.6175C8.93577 18.7002 9.123 18.5572 9.09522 18.371C9.00483 17.7651 8.93046 17.1622 8.89008 16.639C8.88454 16.5673 8.84648 16.5029 8.78846 16.4628C6.9898 15.2204 5.80724 13.1028 5.82154 10.707C5.84401 6.94777 8.83031 3.88484 12.4822 3.87504C16.1729 3.86512 19.1786 6.95301 19.1786 10.75C19.1786 13.1692 17.9583 15.3004 16.1182 16.5261C16.0803 17.0744 16.0017 17.7209 15.9048 18.371C15.877 18.5572 16.0643 18.7002 16.2287 18.6175C18.9975 17.2237 21 14.2729 21 10.75C21 5.91426 17.1983 2 12.5 2ZM12.5 8.25C11.1587 8.25 10.0714 9.3693 10.0714 10.75C10.0714 12.1307 11.1587 13.25 12.5 13.25C13.8413 13.25 14.9286 12.1307 14.9286 10.75C14.9286 9.3693 13.8413 8.25 12.5 8.25Z" fill="#0A0A0A"/>
</svg>
