<svg width="20" height="20" viewBox="0 0 20 20" fill="none" xmlns="http://www.w3.org/2000/svg">
<g clip-path="url(#clip0_1764_158108)">
<path d="M11.4948 11.6081C11.2887 11.8314 11.0402 12.0105 10.7641 12.1347C10.488 12.2589 10.1899 12.3257 9.88767 12.3311C9.58542 12.3365 9.2852 12.2803 9.00491 12.166C8.72462 12.0517 8.47 11.8816 8.25625 11.6658C8.0425 11.45 7.87399 11.1929 7.76077 10.9099C7.64756 10.6269 7.59196 10.3238 7.59729 10.0186C7.60263 9.71347 7.66878 9.41252 7.79181 9.13373C7.91484 8.85495 8.09223 8.60404 8.31339 8.39597M14.3611 14.502C13.0785 15.4892 11.5167 16.036 9.90411 16.0626C4.65174 16.0626 1.65039 10.002 1.65039 10.002C2.58373 8.24589 3.87825 6.71158 5.4471 5.50203L14.3611 14.502ZM8.3284 4.12324C8.84488 4.00118 9.37367 3.94017 9.90411 3.94143C15.1565 3.94143 18.1578 10.002 18.1578 10.002C17.7024 10.8623 17.1592 11.6723 16.5371 12.4187L8.3284 4.12324Z" stroke="#A9A9A9" stroke-width="2" stroke-linecap="round" stroke-linejoin="round"/>
<path d="M1.65039 1.66797L18.1578 18.3346" stroke="#A9A9A9" stroke-width="2" stroke-linecap="round" stroke-linejoin="round"/>
</g>
<defs>
<clipPath id="clip0_1764_158108">
<rect width="19.8089" height="20" fill="white"/>
</clipPath>
</defs>
</svg>
