<svg width="158" height="34" viewBox="0 0 158 34" fill="none" xmlns="http://www.w3.org/2000/svg">
<path d="M144.352 32.1768C144.544 32.4648 144.688 32.6088 144.984 32.7928C145.296 32.9928 145.632 33.0808 146.056 33.0808C147.216 33.0808 148.016 32.3208 148.016 31.2168C148.016 30.8168 147.88 30.4728 147.608 30.1928C147.392 29.9768 147.208 29.8728 146.888 29.8008C147.392 29.6808 147.632 29.5688 147.88 29.3048C148.152 29.0088 148.304 28.6088 148.304 28.1768C148.304 27.3608 147.688 26.8248 146.768 26.8248C146.176 26.8248 145.704 27.0248 145.36 27.4328C145.04 27.8088 144.768 28.4168 144.528 29.2888L143.488 33.0648C143.368 33.4968 143.288 33.7128 143.184 33.9528H143.92C143.944 33.7048 143.976 33.5368 144.096 33.0888L144.352 32.1768ZM145.08 29.4408C145.488 27.9288 145.96 27.3368 146.744 27.3368C147.32 27.3368 147.712 27.6968 147.712 28.2248C147.712 28.5528 147.568 28.8728 147.328 29.1128C147.064 29.3688 146.68 29.4968 146.176 29.4968C146.016 29.4968 145.896 29.4888 145.728 29.4568L145.568 30.0648C145.76 30.0328 145.88 30.0248 146.056 30.0248C146.344 30.0248 146.592 30.0888 146.824 30.2248C147.208 30.4488 147.392 30.7688 147.392 31.2168C147.392 32.0008 146.832 32.5608 146.048 32.5608C145.6 32.5608 145.192 32.3928 144.864 32.0648C144.712 31.9208 144.64 31.8088 144.512 31.5528L145.08 29.4408Z" fill="#939393"/>
<path d="M153.992 29.0888C154.184 30.2488 154.432 30.9368 154.904 31.7048C154.392 32.3608 153.944 32.7448 153.256 33.1368C153.392 33.2648 153.488 33.3848 153.592 33.5768C154.304 33.1048 154.696 32.7368 155.184 32.1128C155.648 32.7048 156.08 33.1128 156.768 33.5848C156.864 33.3848 156.936 33.2728 157.08 33.0968C156.368 32.6728 155.936 32.2968 155.488 31.7048C155.68 31.4248 155.84 31.1608 155.992 30.8568C156.2 30.4328 156.464 29.7208 156.576 29.2888C156.632 29.0488 156.64 29.0248 156.696 28.8808L156.416 28.6088C156.28 28.6408 156.072 28.6488 155.712 28.6488H153.744C153.752 28.2888 153.76 28.0888 153.76 27.8648V27.1768H156.04C156.336 27.1768 156.64 27.1928 156.896 27.2168V26.6728C156.68 26.7048 156.384 26.7208 156.024 26.7208H154.032C153.696 26.7208 153.416 26.7048 153.232 26.6808C153.256 26.9528 153.264 27.1048 153.264 27.5928C153.264 29.3448 153.216 30.2248 153.088 31.1608C152.944 32.2008 152.776 32.7208 152.4 33.3368C152.64 33.4728 152.648 33.4808 152.816 33.6568C153.44 32.5288 153.64 31.5288 153.736 29.0888H153.992ZM156.112 29.0888C155.904 29.9608 155.632 30.6248 155.208 31.2888C154.816 30.6568 154.608 30.0568 154.432 29.0888H156.112ZM151.784 30.6728V32.6808C151.784 33.1368 151.768 33.3288 151.736 33.5688H152.304C152.272 33.3208 152.264 33.0968 152.264 32.6888V30.8968C152.264 30.5128 152.264 30.3608 152.288 30.1928C152.104 30.2168 151.936 30.2248 151.616 30.2248H150.744C150.76 29.8328 150.768 29.5928 150.768 29.0648H152.152C152.592 29.0648 152.72 29.0728 152.904 29.0968V28.5768C152.728 28.6088 152.664 28.6088 152.192 28.6168V27.2328C152.192 26.9208 152.2 26.6648 152.232 26.4648H151.664C151.696 26.6648 151.712 26.9208 151.712 27.2328V28.6168H150.768V27.5208C150.768 27.1368 150.776 26.8408 150.808 26.6328H150.224C150.264 26.8808 150.28 27.1128 150.28 27.4808V29.2328C150.28 31.4488 150.112 32.5448 149.672 33.2808C149.896 33.4088 149.976 33.4728 150.12 33.6248C150.496 32.8648 150.648 32.1288 150.728 30.6728H151.784Z" fill="#939393"/>
<path d="M11.4845 16.0306C12.6404 16.5406 13.5307 17.2708 14.1477 18.2173C14.7647 19.1677 15.0732 20.2959 15.0732 21.6017C15.0732 22.8921 14.7647 24.0164 14.1477 24.9745C13.5307 25.9327 12.6443 26.6667 11.4845 27.1767C10.3286 27.6867 8.9697 27.9417 7.40771 27.9417H3.34265V33.084H0V15.2656H7.40771C8.9697 15.2656 10.3286 15.5206 11.4845 16.0306ZM10.5707 24.225C11.3244 23.6146 11.7032 22.7414 11.7032 21.6056C11.7032 20.4697 11.3244 19.5966 10.5707 18.9823C9.81707 18.3719 8.70806 18.0666 7.25151 18.0666H3.34265V25.1407H7.25151C8.71197 25.1407 9.81707 24.8354 10.5707 24.225Z" fill="#0A0A0A"/>
<path d="M35.0879 33.0801L31.4094 27.8644C31.2532 27.8799 31.0228 27.8914 30.7144 27.8914H26.6493V33.084H23.3066V15.2656H30.7144C32.2763 15.2656 33.6353 15.5206 34.7911 16.0306C35.947 16.5406 36.8373 17.2708 37.4543 18.2173C38.0713 19.1677 38.3798 20.2959 38.3798 21.6017C38.3798 22.9423 38.0479 24.0975 37.3879 25.0634C36.728 26.0293 35.7791 26.7517 34.5451 27.2269L38.6844 33.0801H35.0879ZM33.8774 18.9823C33.1237 18.3719 32.0147 18.0666 30.5582 18.0666H26.6493V25.1677H30.5582C32.0147 25.1677 33.1198 24.8586 33.8774 24.2405C34.631 23.6223 35.0098 22.7414 35.0098 21.6056C35.0098 20.4659 34.6349 19.5927 33.8774 18.9823Z" fill="#0A0A0A"/>
<path d="M51.7445 32.1384C50.2685 31.3502 49.1126 30.2568 48.273 28.8544C47.4335 27.4558 47.0117 25.8911 47.0117 24.1603C47.0117 22.4295 47.4335 20.8647 48.273 19.4662C49.1126 18.0676 50.2724 16.9704 51.7445 16.1822C53.2206 15.3941 54.8763 15 56.7116 15C58.547 15 60.2027 15.3941 61.6749 16.1822C63.1509 16.9704 64.3068 18.0599 65.1464 19.4507C65.9859 20.8416 66.4077 22.4101 66.4077 24.1603C66.4077 25.9066 65.9859 27.479 65.1464 28.8699C64.3068 30.2607 63.147 31.3502 61.6749 32.1384C60.1988 32.9265 58.547 33.3206 56.7116 33.3206C54.8763 33.3244 53.2206 32.9304 51.7445 32.1384ZM59.9528 29.6194C60.9134 29.0862 61.667 28.3406 62.2176 27.3786C62.7643 26.4204 63.0416 25.3464 63.0416 24.1603C63.0416 22.9742 62.7682 21.9002 62.2176 20.942C61.667 19.9839 60.9134 19.2382 59.9528 18.7012C58.9921 18.168 57.9105 17.8976 56.7116 17.8976C55.5128 17.8976 54.4311 18.1642 53.4705 18.7012C52.5099 19.2344 51.7563 19.9839 51.2057 20.942C50.6551 21.9002 50.3817 22.9742 50.3817 24.1603C50.3817 25.3464 50.6551 26.4204 51.2057 27.3786C51.7563 28.3367 52.5099 29.0824 53.4705 29.6194C54.4311 30.1525 55.5128 30.423 56.7116 30.423C57.9105 30.423 58.9921 30.1564 59.9528 29.6194Z" fill="#0A0A0A"/>
<path d="M87.2443 16.0306C88.4001 16.5406 89.2905 17.2708 89.9075 18.2173C90.5244 19.1677 90.8329 20.2959 90.8329 21.6017C90.8329 22.8921 90.5244 24.0164 89.9075 24.9745C89.2905 25.9327 88.404 26.6667 87.2443 27.1767C86.0884 27.6867 84.7295 27.9417 83.1675 27.9417H79.1024V33.084H75.7598V15.2656H83.1675C84.7295 15.2656 86.0884 15.5206 87.2443 16.0306ZM86.3305 24.225C87.0842 23.6146 87.4629 22.7414 87.4629 21.6056C87.4629 20.4697 87.0842 19.5966 86.3305 18.9823C85.5769 18.3719 84.4678 18.0666 83.0113 18.0666H79.1024V25.1407H83.0113C84.4717 25.1407 85.5769 24.8354 86.3305 24.225Z" fill="#0A0A0A"/>
<path d="M116.691 19.4546C115.852 18.0637 114.692 16.9742 113.22 16.1861C111.744 15.3941 110.092 15 108.257 15C106.421 15 104.766 15.3941 103.293 16.1822C101.817 16.9704 100.661 18.0637 99.8219 19.4662C98.9823 20.8647 98.5605 22.4295 98.5605 24.1603C98.5605 25.8911 98.9823 27.4558 99.8219 28.8544C100.661 30.253 101.821 31.3502 103.293 32.1384C104.769 32.9265 106.421 33.3206 108.257 33.3206C110.092 33.3206 111.748 32.9265 113.22 32.1384C114.696 31.3502 115.852 30.2607 116.691 28.8699C117.531 27.479 117.953 25.9104 117.953 24.1603C117.953 22.414 117.535 20.8454 116.691 19.4546ZM113.763 27.3824C113.212 28.3406 112.458 29.0862 111.498 29.6232C110.537 30.1564 109.455 30.4268 108.257 30.4268C107.058 30.4268 105.976 30.1603 105.015 29.6232C104.055 29.0901 103.301 28.3444 102.751 27.3824C102.2 26.4243 101.927 25.3502 101.927 24.1642C101.927 22.9781 102.2 21.904 102.751 20.9459C103.301 19.9877 104.055 19.2421 105.015 18.7051C105.976 18.1719 107.058 17.9015 108.257 17.9015C109.455 17.9015 110.537 18.168 111.498 18.7051C112.458 19.2382 113.212 19.9877 113.763 20.9459C114.309 21.904 114.587 22.9781 114.587 24.1642C114.583 25.3502 114.309 26.4243 113.763 27.3824Z" fill="#0A0A0A"/>
<path d="M99.851 22.2539C99.851 22.2539 97.754 24.2011 96.4107 24.4368C95.9577 25.4645 99.3316 25.2945 100.519 25.4026C101.71 25.5069 99.851 22.2539 99.851 22.2539Z" fill="#0A0A0A"/>
<path d="M50.6898 24.2036C50.7008 24.2036 50.7097 24.1948 50.7097 24.1838C50.7097 24.1729 50.7008 24.1641 50.6898 24.1641C50.6788 24.1641 50.6699 24.1729 50.6699 24.1838C50.6699 24.1948 50.6788 24.2036 50.6898 24.2036Z" fill="#0A0A0A"/>
<path d="M50.6898 23.1138C50.7008 23.1138 50.7097 23.1049 50.7097 23.094C50.7097 23.0831 50.7008 23.0742 50.6898 23.0742C50.6788 23.0742 50.6699 23.0831 50.6699 23.094C50.6699 23.1049 50.6788 23.1138 50.6898 23.1138Z" fill="#0A0A0A"/>
<path d="M51.2355 23.6776C51.2578 23.6776 51.2758 23.6597 51.2758 23.6376C51.2758 23.6155 51.2578 23.5977 51.2355 23.5977C51.2133 23.5977 51.1953 23.6155 51.1953 23.6376C51.1953 23.6597 51.2133 23.6776 51.2355 23.6776Z" fill="#0A0A0A"/>
<path d="M51.783 24.2449C51.8163 24.2449 51.8433 24.218 51.8433 24.1849C51.8433 24.1518 51.8163 24.125 51.783 24.125C51.7497 24.125 51.7227 24.1518 51.7227 24.1849C51.7227 24.218 51.7497 24.2449 51.783 24.2449Z" fill="#0A0A0A"/>
<path d="M51.783 23.1589C51.8163 23.1589 51.8433 23.1321 51.8433 23.099C51.8433 23.0659 51.8163 23.0391 51.783 23.0391C51.7497 23.0391 51.7227 23.0659 51.7227 23.099C51.7227 23.1321 51.7497 23.1589 51.783 23.1589Z" fill="#0A0A0A"/>
<path d="M52.3261 23.7131C52.3693 23.7131 52.4043 23.6785 52.4043 23.6359C52.4043 23.5932 52.3693 23.5586 52.3261 23.5586C52.283 23.5586 52.248 23.5932 52.248 23.6359C52.248 23.6785 52.283 23.7131 52.3261 23.7131Z" fill="#0A0A0A"/>
<path d="M52.8769 24.2752C52.9308 24.2752 52.9745 24.232 52.9745 24.1786C52.9745 24.1253 52.9308 24.082 52.8769 24.082C52.823 24.082 52.7793 24.1253 52.7793 24.1786C52.7793 24.232 52.823 24.2752 52.8769 24.2752Z" fill="#0A0A0A"/>
<path d="M52.8769 23.1893C52.9308 23.1893 52.9745 23.146 52.9745 23.0927C52.9745 23.0393 52.9308 22.9961 52.8769 22.9961C52.823 22.9961 52.7793 23.0393 52.7793 23.0927C52.7793 23.146 52.823 23.1893 52.8769 23.1893Z" fill="#0A0A0A"/>
<path d="M53.4257 23.7513C53.4904 23.7513 53.5429 23.6994 53.5429 23.6354C53.5429 23.5714 53.4904 23.5195 53.4257 23.5195C53.361 23.5195 53.3086 23.5714 53.3086 23.6354C53.3086 23.6994 53.361 23.7513 53.4257 23.7513Z" fill="#0A0A0A"/>
<path d="M53.9726 24.3173C54.0481 24.3173 54.1093 24.2568 54.1093 24.1821C54.1093 24.1074 54.0481 24.0469 53.9726 24.0469C53.8971 24.0469 53.8359 24.1074 53.8359 24.1821C53.8359 24.2568 53.8971 24.3173 53.9726 24.3173Z" fill="#0A0A0A"/>
<path d="M53.9726 23.2314C54.0481 23.2314 54.1093 23.1708 54.1093 23.0962C54.1093 23.0215 54.0481 22.9609 53.9726 22.9609C53.8971 22.9609 53.8359 23.0215 53.8359 23.0962C53.8359 23.1708 53.8971 23.2314 53.9726 23.2314Z" fill="#0A0A0A"/>
<path d="M55.0663 24.3516C55.1634 24.3516 55.2421 24.2738 55.2421 24.1778C55.2421 24.0817 55.1634 24.0039 55.0663 24.0039C54.9693 24.0039 54.8906 24.0817 54.8906 24.1778C54.8906 24.2738 54.9693 24.3516 55.0663 24.3516Z" fill="#0A0A0A"/>
<path d="M55.0663 23.2657C55.1634 23.2657 55.2421 23.1878 55.2421 23.0918C55.2421 22.9958 55.1634 22.918 55.0663 22.918C54.9693 22.918 54.8906 22.9958 54.8906 23.0918C54.8906 23.1878 54.9693 23.2657 55.0663 23.2657Z" fill="#0A0A0A"/>
<path d="M55.6191 23.8238C55.7269 23.8238 55.8143 23.7374 55.8143 23.6307C55.8143 23.524 55.7269 23.4375 55.6191 23.4375C55.5112 23.4375 55.4238 23.524 55.4238 23.6307C55.4238 23.7374 55.5112 23.8238 55.6191 23.8238Z" fill="#0A0A0A"/>
<path d="M54.5214 23.7856C54.6077 23.7856 54.6776 23.7165 54.6776 23.6311C54.6776 23.5458 54.6077 23.4766 54.5214 23.4766C54.4352 23.4766 54.3652 23.5458 54.3652 23.6311C54.3652 23.7165 54.4352 23.7856 54.5214 23.7856Z" fill="#0A0A0A"/>
<path d="M56.164 24.363C56.2697 24.363 56.3553 24.2782 56.3553 24.1737C56.3553 24.0691 56.2697 23.9844 56.164 23.9844C56.0583 23.9844 55.9727 24.0691 55.9727 24.1737C55.9727 24.2782 56.0583 24.363 56.164 24.363Z" fill="#0A0A0A"/>
<path d="M56.164 23.2771C56.2697 23.2771 56.3553 23.1923 56.3553 23.0877C56.3553 22.9832 56.2697 22.8984 56.164 22.8984C56.0583 22.8984 55.9727 22.9832 55.9727 23.0877C55.9727 23.1923 56.0583 23.2771 56.164 23.2771Z" fill="#0A0A0A"/>
<path d="M56.7109 23.82C56.8165 23.82 56.9022 23.7353 56.9022 23.6307C56.9022 23.5262 56.8165 23.4414 56.7109 23.4414C56.6052 23.4414 56.5195 23.5262 56.5195 23.6307C56.5195 23.7353 56.6052 23.82 56.7109 23.82Z" fill="#0A0A0A"/>
<path d="M57.2578 24.3708C57.3634 24.3708 57.4491 24.2861 57.4491 24.1815C57.4491 24.0769 57.3634 23.9922 57.2578 23.9922C57.1521 23.9922 57.0664 24.0769 57.0664 24.1815C57.0664 24.2861 57.1521 24.3708 57.2578 24.3708Z" fill="#0A0A0A"/>
<path d="M57.2578 23.281C57.3634 23.281 57.4491 23.1962 57.4491 23.0917C57.4491 22.9871 57.3634 22.9023 57.2578 22.9023C57.1521 22.9023 57.0664 22.9871 57.0664 23.0917C57.0664 23.1962 57.1521 23.281 57.2578 23.281Z" fill="#0A0A0A"/>
<path d="M57.8046 23.8238C57.9125 23.8238 57.9999 23.7374 57.9999 23.6307C57.9999 23.524 57.9125 23.4375 57.8046 23.4375C57.6968 23.4375 57.6094 23.524 57.6094 23.6307C57.6094 23.7374 57.6968 23.8238 57.8046 23.8238Z" fill="#0A0A0A"/>
<path d="M58.3515 24.3516C58.4486 24.3516 58.5272 24.2738 58.5272 24.1778C58.5272 24.0817 58.4486 24.0039 58.3515 24.0039C58.2545 24.0039 58.1758 24.0817 58.1758 24.1778C58.1758 24.2738 58.2545 24.3516 58.3515 24.3516Z" fill="#0A0A0A"/>
<path d="M58.3515 23.2657C58.4486 23.2657 58.5272 23.1878 58.5272 23.0918C58.5272 22.9958 58.4486 22.918 58.3515 22.918C58.2545 22.918 58.1758 22.9958 58.1758 23.0918C58.1758 23.1878 58.2545 23.2657 58.3515 23.2657Z" fill="#0A0A0A"/>
<path d="M59.4472 24.3173C59.5227 24.3173 59.5839 24.2568 59.5839 24.1821C59.5839 24.1074 59.5227 24.0469 59.4472 24.0469C59.3717 24.0469 59.3105 24.1074 59.3105 24.1821C59.3105 24.2568 59.3717 24.3173 59.4472 24.3173Z" fill="#0A0A0A"/>
<path d="M59.4472 23.2314C59.5227 23.2314 59.5839 23.1708 59.5839 23.0962C59.5839 23.0215 59.5227 22.9609 59.4472 22.9609C59.3717 22.9609 59.3105 23.0215 59.3105 23.0962C59.3105 23.1708 59.3717 23.2314 59.4472 23.2314Z" fill="#0A0A0A"/>
<path d="M59.9941 23.7513C60.0588 23.7513 60.1113 23.6994 60.1113 23.6354C60.1113 23.5714 60.0588 23.5195 59.9941 23.5195C59.9294 23.5195 59.877 23.5714 59.877 23.6354C59.877 23.6994 59.9294 23.7513 59.9941 23.7513Z" fill="#0A0A0A"/>
<path d="M58.8984 23.7856C58.9847 23.7856 59.0546 23.7165 59.0546 23.6311C59.0546 23.5458 58.9847 23.4766 58.8984 23.4766C58.8121 23.4766 58.7422 23.5458 58.7422 23.6311C58.7422 23.7165 58.8121 23.7856 58.8984 23.7856Z" fill="#0A0A0A"/>
<path d="M60.539 24.2752C60.5929 24.2752 60.6367 24.232 60.6367 24.1786C60.6367 24.1253 60.5929 24.082 60.539 24.082C60.4851 24.082 60.4414 24.1253 60.4414 24.1786C60.4414 24.232 60.4851 24.2752 60.539 24.2752Z" fill="#0A0A0A"/>
<path d="M60.539 23.1893C60.5929 23.1893 60.6367 23.146 60.6367 23.0927C60.6367 23.0393 60.5929 22.9961 60.539 22.9961C60.4851 22.9961 60.4414 23.0393 60.4414 23.0927C60.4414 23.146 60.4851 23.1893 60.539 23.1893Z" fill="#0A0A0A"/>
<path d="M61.6404 24.2449C61.6737 24.2449 61.7008 24.218 61.7008 24.1849C61.7008 24.1518 61.6737 24.125 61.6404 24.125C61.6071 24.125 61.5801 24.1518 61.5801 24.1849C61.5801 24.218 61.6071 24.2449 61.6404 24.2449Z" fill="#0A0A0A"/>
<path d="M61.6404 23.1589C61.6737 23.1589 61.7008 23.1321 61.7008 23.099C61.7008 23.0659 61.6737 23.0391 61.6404 23.0391C61.6071 23.0391 61.5801 23.0659 61.5801 23.099C61.5801 23.1321 61.6071 23.1589 61.6404 23.1589Z" fill="#0A0A0A"/>
<path d="M62.1867 23.6776C62.2089 23.6776 62.2269 23.6597 62.2269 23.6376C62.2269 23.6155 62.2089 23.5977 62.1867 23.5977C62.1645 23.5977 62.1465 23.6155 62.1465 23.6376C62.1465 23.6597 62.1645 23.6776 62.1867 23.6776Z" fill="#0A0A0A"/>
<path d="M61.0859 23.7131C61.129 23.7131 61.164 23.6785 61.164 23.6359C61.164 23.5932 61.129 23.5586 61.0859 23.5586C61.0428 23.5586 61.0078 23.5932 61.0078 23.6359C61.0078 23.6785 61.0428 23.7131 61.0859 23.7131Z" fill="#0A0A0A"/>
<path d="M62.7328 24.2036C62.7438 24.2036 62.7527 24.1948 62.7527 24.1838C62.7527 24.1729 62.7438 24.1641 62.7328 24.1641C62.7218 24.1641 62.7129 24.1729 62.7129 24.1838C62.7129 24.1948 62.7218 24.2036 62.7328 24.2036Z" fill="#0A0A0A"/>
<path d="M62.7328 23.1138C62.7438 23.1138 62.7527 23.1049 62.7527 23.094C62.7527 23.0831 62.7438 23.0742 62.7328 23.0742C62.7218 23.0742 62.7129 23.0831 62.7129 23.094C62.7129 23.1049 62.7218 23.1138 62.7328 23.1138Z" fill="#0A0A0A"/>
<path d="M51.2355 22.5955C51.2578 22.5955 51.2758 22.5776 51.2758 22.5556C51.2758 22.5335 51.2578 22.5156 51.2355 22.5156C51.2133 22.5156 51.1953 22.5335 51.1953 22.5556C51.1953 22.5776 51.2133 22.5955 51.2355 22.5955Z" fill="#0A0A0A"/>
<path d="M52.3261 22.635C52.3693 22.635 52.4043 22.6004 52.4043 22.5577C52.4043 22.5151 52.3693 22.4805 52.3261 22.4805C52.283 22.4805 52.248 22.5151 52.248 22.5577C52.248 22.6004 52.283 22.635 52.3261 22.635Z" fill="#0A0A0A"/>
<path d="M53.4257 22.6654C53.4904 22.6654 53.5429 22.6135 53.5429 22.5495C53.5429 22.4855 53.4904 22.4336 53.4257 22.4336C53.361 22.4336 53.3086 22.4855 53.3086 22.5495C53.3086 22.6135 53.361 22.6654 53.4257 22.6654Z" fill="#0A0A0A"/>
<path d="M55.6191 22.7457C55.7269 22.7457 55.8143 22.6592 55.8143 22.5525C55.8143 22.4459 55.7269 22.3594 55.6191 22.3594C55.5112 22.3594 55.4238 22.4459 55.4238 22.5525C55.4238 22.6592 55.5112 22.7457 55.6191 22.7457Z" fill="#0A0A0A"/>
<path d="M54.5214 22.7036C54.6077 22.7036 54.6776 22.6344 54.6776 22.5491C54.6776 22.4637 54.6077 22.3945 54.5214 22.3945C54.4352 22.3945 54.3652 22.4637 54.3652 22.5491C54.3652 22.6344 54.4352 22.7036 54.5214 22.7036Z" fill="#0A0A0A"/>
<path d="M56.7109 22.738C56.8165 22.738 56.9022 22.6532 56.9022 22.5487C56.9022 22.4441 56.8165 22.3594 56.7109 22.3594C56.6052 22.3594 56.5195 22.4441 56.5195 22.5487C56.5195 22.6532 56.6052 22.738 56.7109 22.738Z" fill="#0A0A0A"/>
<path d="M57.8046 22.7457C57.9125 22.7457 57.9999 22.6592 57.9999 22.5525C57.9999 22.4459 57.9125 22.3594 57.8046 22.3594C57.6968 22.3594 57.6094 22.4459 57.6094 22.5525C57.6094 22.6592 57.6968 22.7457 57.8046 22.7457Z" fill="#0A0A0A"/>
<path d="M59.9941 22.6654C60.0588 22.6654 60.1113 22.6135 60.1113 22.5495C60.1113 22.4855 60.0588 22.4336 59.9941 22.4336C59.9294 22.4336 59.877 22.4855 59.877 22.5495C59.877 22.6135 59.9294 22.6654 59.9941 22.6654Z" fill="#0A0A0A"/>
<path d="M58.8984 22.7036C58.9847 22.7036 59.0546 22.6344 59.0546 22.5491C59.0546 22.4637 58.9847 22.3945 58.8984 22.3945C58.8121 22.3945 58.7422 22.4637 58.7422 22.5491C58.7422 22.6344 58.8121 22.7036 58.8984 22.7036Z" fill="#0A0A0A"/>
<path d="M62.1867 22.5955C62.2089 22.5955 62.2269 22.5776 62.2269 22.5556C62.2269 22.5335 62.2089 22.5156 62.1867 22.5156C62.1645 22.5156 62.1465 22.5335 62.1465 22.5556C62.1465 22.5776 62.1645 22.5955 62.1867 22.5955Z" fill="#0A0A0A"/>
<path d="M61.0859 22.635C61.129 22.635 61.164 22.6004 61.164 22.5577C61.164 22.5151 61.129 22.4805 61.0859 22.4805C61.0428 22.4805 61.0078 22.5151 61.0078 22.5577C61.0078 22.6004 61.0428 22.635 61.0859 22.635Z" fill="#0A0A0A"/>
<path d="M50.6898 22.0356C50.7008 22.0356 50.7097 22.0268 50.7097 22.0159C50.7097 22.0049 50.7008 21.9961 50.6898 21.9961C50.6788 21.9961 50.6699 22.0049 50.6699 22.0159C50.6699 22.0268 50.6788 22.0356 50.6898 22.0356Z" fill="#0A0A0A"/>
<path d="M51.783 22.073C51.8163 22.073 51.8433 22.0462 51.8433 22.0131C51.8433 21.98 51.8163 21.9531 51.783 21.9531C51.7497 21.9531 51.7227 21.98 51.7227 22.0131C51.7227 22.0462 51.7497 22.073 51.783 22.073Z" fill="#0A0A0A"/>
<path d="M52.8769 22.1072C52.9308 22.1072 52.9745 22.064 52.9745 22.0106C52.9745 21.9573 52.9308 21.9141 52.8769 21.9141C52.823 21.9141 52.7793 21.9573 52.7793 22.0106C52.7793 22.064 52.823 22.1072 52.8769 22.1072Z" fill="#0A0A0A"/>
<path d="M53.9726 22.1493C54.0481 22.1493 54.1093 22.0888 54.1093 22.0141C54.1093 21.9394 54.0481 21.8789 53.9726 21.8789C53.8971 21.8789 53.8359 21.9394 53.8359 22.0141C53.8359 22.0888 53.8971 22.1493 53.9726 22.1493Z" fill="#0A0A0A"/>
<path d="M55.0663 22.1836C55.1634 22.1836 55.2421 22.1058 55.2421 22.0098C55.2421 21.9138 55.1634 21.8359 55.0663 21.8359C54.9693 21.8359 54.8906 21.9138 54.8906 22.0098C54.8906 22.1058 54.9693 22.1836 55.0663 22.1836Z" fill="#0A0A0A"/>
<path d="M56.164 22.1989C56.2697 22.1989 56.3553 22.1142 56.3553 22.0096C56.3553 21.9051 56.2697 21.8203 56.164 21.8203C56.0583 21.8203 55.9727 21.9051 55.9727 22.0096C55.9727 22.1142 56.0583 22.1989 56.164 22.1989Z" fill="#0A0A0A"/>
<path d="M57.2578 22.1989C57.3634 22.1989 57.4491 22.1142 57.4491 22.0096C57.4491 21.9051 57.3634 21.8203 57.2578 21.8203C57.1521 21.8203 57.0664 21.9051 57.0664 22.0096C57.0664 22.1142 57.1521 22.1989 57.2578 22.1989Z" fill="#0A0A0A"/>
<path d="M58.3515 22.1836C58.4486 22.1836 58.5272 22.1058 58.5272 22.0098C58.5272 21.9138 58.4486 21.8359 58.3515 21.8359C58.2545 21.8359 58.1758 21.9138 58.1758 22.0098C58.1758 22.1058 58.2545 22.1836 58.3515 22.1836Z" fill="#0A0A0A"/>
<path d="M59.4472 22.1493C59.5227 22.1493 59.5839 22.0888 59.5839 22.0141C59.5839 21.9394 59.5227 21.8789 59.4472 21.8789C59.3717 21.8789 59.3105 21.9394 59.3105 22.0141C59.3105 22.0888 59.3717 22.1493 59.4472 22.1493Z" fill="#0A0A0A"/>
<path d="M60.539 22.1072C60.5929 22.1072 60.6367 22.064 60.6367 22.0106C60.6367 21.9573 60.5929 21.9141 60.539 21.9141C60.4851 21.9141 60.4414 21.9573 60.4414 22.0106C60.4414 22.064 60.4851 22.1072 60.539 22.1072Z" fill="#0A0A0A"/>
<path d="M61.6404 22.073C61.6737 22.073 61.7008 22.0462 61.7008 22.0131C61.7008 21.98 61.6737 21.9531 61.6404 21.9531C61.6071 21.9531 61.5801 21.98 61.5801 22.0131C61.5801 22.0462 61.6071 22.073 61.6404 22.073Z" fill="#0A0A0A"/>
<path d="M62.7328 22.0356C62.7438 22.0356 62.7527 22.0268 62.7527 22.0159C62.7527 22.0049 62.7438 21.9961 62.7328 21.9961C62.7218 21.9961 62.7129 22.0049 62.7129 22.0159C62.7129 22.0268 62.7218 22.0356 62.7328 22.0356Z" fill="#0A0A0A"/>
<path d="M50.6898 26.3677C50.7008 26.3677 50.7097 26.3588 50.7097 26.3479C50.7097 26.337 50.7008 26.3281 50.6898 26.3281C50.6788 26.3281 50.6699 26.337 50.6699 26.3479C50.6699 26.3588 50.6788 26.3677 50.6898 26.3677Z" fill="#0A0A0A"/>
<path d="M50.6898 25.2817C50.7008 25.2817 50.7097 25.2729 50.7097 25.262C50.7097 25.251 50.7008 25.2422 50.6898 25.2422C50.6788 25.2422 50.6699 25.251 50.6699 25.262C50.6699 25.2729 50.6788 25.2817 50.6898 25.2817Z" fill="#0A0A0A"/>
<path d="M51.2355 25.8416C51.2578 25.8416 51.2758 25.8237 51.2758 25.8017C51.2758 25.7796 51.2578 25.7617 51.2355 25.7617C51.2133 25.7617 51.1953 25.7796 51.1953 25.8017C51.1953 25.8237 51.2133 25.8416 51.2355 25.8416Z" fill="#0A0A0A"/>
<path d="M51.783 26.4089C51.8163 26.4089 51.8433 26.3821 51.8433 26.349C51.8433 26.3159 51.8163 26.2891 51.783 26.2891C51.7497 26.2891 51.7227 26.3159 51.7227 26.349C51.7227 26.3821 51.7497 26.4089 51.783 26.4089Z" fill="#0A0A0A"/>
<path d="M51.783 25.3191C51.8163 25.3191 51.8433 25.2922 51.8433 25.2591C51.8433 25.2261 51.8163 25.1992 51.783 25.1992C51.7497 25.1992 51.7227 25.2261 51.7227 25.2591C51.7227 25.2922 51.7497 25.3191 51.783 25.3191Z" fill="#0A0A0A"/>
<path d="M52.3261 25.8694C52.3693 25.8694 52.4043 25.8348 52.4043 25.7921C52.4043 25.7494 52.3693 25.7148 52.3261 25.7148C52.283 25.7148 52.248 25.7494 52.248 25.7921C52.248 25.8348 52.283 25.8694 52.3261 25.8694Z" fill="#0A0A0A"/>
<path d="M52.8769 26.4432C52.9308 26.4432 52.9745 26.3999 52.9745 26.3466C52.9745 26.2932 52.9308 26.25 52.8769 26.25C52.823 26.25 52.7793 26.2932 52.7793 26.3466C52.7793 26.3999 52.823 26.4432 52.8769 26.4432Z" fill="#0A0A0A"/>
<path d="M52.8769 25.3533C52.9308 25.3533 52.9745 25.3101 52.9745 25.2567C52.9745 25.2034 52.9308 25.1602 52.8769 25.1602C52.823 25.1602 52.7793 25.2034 52.7793 25.2567C52.7793 25.3101 52.823 25.3533 52.8769 25.3533Z" fill="#0A0A0A"/>
<path d="M53.4257 25.9154C53.4904 25.9154 53.5429 25.8635 53.5429 25.7995C53.5429 25.7355 53.4904 25.6836 53.4257 25.6836C53.361 25.6836 53.3086 25.7355 53.3086 25.7995C53.3086 25.8635 53.361 25.9154 53.4257 25.9154Z" fill="#0A0A0A"/>
<path d="M53.9726 26.4736C54.0481 26.4736 54.1093 26.413 54.1093 26.3383C54.1093 26.2637 54.0481 26.2031 53.9726 26.2031C53.8971 26.2031 53.8359 26.2637 53.8359 26.3383C53.8359 26.413 53.8971 26.4736 53.9726 26.4736Z" fill="#0A0A0A"/>
<path d="M53.9726 25.3954C54.0481 25.3954 54.1093 25.3349 54.1093 25.2602C54.1093 25.1855 54.0481 25.125 53.9726 25.125C53.8971 25.125 53.8359 25.1855 53.8359 25.2602C53.8359 25.3349 53.8971 25.3954 53.9726 25.3954Z" fill="#0A0A0A"/>
<path d="M55.0663 26.5118C55.1634 26.5118 55.2421 26.4339 55.2421 26.3379C55.2421 26.2419 55.1634 26.1641 55.0663 26.1641C54.9693 26.1641 54.8906 26.2419 54.8906 26.3379C54.8906 26.4339 54.9693 26.5118 55.0663 26.5118Z" fill="#0A0A0A"/>
<path d="M55.0663 25.4297C55.1634 25.4297 55.2421 25.3519 55.2421 25.2559C55.2421 25.1599 55.1634 25.082 55.0663 25.082C54.9693 25.082 54.8906 25.1599 54.8906 25.2559C54.8906 25.3519 54.9693 25.4297 55.0663 25.4297Z" fill="#0A0A0A"/>
<path d="M55.6191 25.9957C55.7269 25.9957 55.8143 25.9092 55.8143 25.8025C55.8143 25.6959 55.7269 25.6094 55.6191 25.6094C55.5112 25.6094 55.4238 25.6959 55.4238 25.8025C55.4238 25.9092 55.5112 25.9957 55.6191 25.9957Z" fill="#0A0A0A"/>
<path d="M54.5214 25.9497C54.6077 25.9497 54.6776 25.8805 54.6776 25.7952C54.6776 25.7098 54.6077 25.6406 54.5214 25.6406C54.4352 25.6406 54.3652 25.7098 54.3652 25.7952C54.3652 25.8805 54.4352 25.9497 54.5214 25.9497Z" fill="#0A0A0A"/>
<path d="M56.164 26.5271C56.2697 26.5271 56.3553 26.4423 56.3553 26.3377C56.3553 26.2332 56.2697 26.1484 56.164 26.1484C56.0583 26.1484 55.9727 26.2332 55.9727 26.3377C55.9727 26.4423 56.0583 26.5271 56.164 26.5271Z" fill="#0A0A0A"/>
<path d="M56.164 25.4411C56.2697 25.4411 56.3553 25.3564 56.3553 25.2518C56.3553 25.1473 56.2697 25.0625 56.164 25.0625C56.0583 25.0625 55.9727 25.1473 55.9727 25.2518C55.9727 25.3564 56.0583 25.4411 56.164 25.4411Z" fill="#0A0A0A"/>
<path d="M56.7109 25.988C56.8165 25.988 56.9022 25.9032 56.9022 25.7987C56.9022 25.6941 56.8165 25.6094 56.7109 25.6094C56.6052 25.6094 56.5195 25.6941 56.5195 25.7987C56.5195 25.9032 56.6052 25.988 56.7109 25.988Z" fill="#0A0A0A"/>
<path d="M57.2578 26.5271C57.3634 26.5271 57.4491 26.4423 57.4491 26.3377C57.4491 26.2332 57.3634 26.1484 57.2578 26.1484C57.1521 26.1484 57.0664 26.2332 57.0664 26.3377C57.0664 26.4423 57.1521 26.5271 57.2578 26.5271Z" fill="#0A0A0A"/>
<path d="M57.2578 25.4489C57.3634 25.4489 57.4491 25.3642 57.4491 25.2596C57.4491 25.1551 57.3634 25.0703 57.2578 25.0703C57.1521 25.0703 57.0664 25.1551 57.0664 25.2596C57.0664 25.3642 57.1521 25.4489 57.2578 25.4489Z" fill="#0A0A0A"/>
<path d="M57.8046 25.9957C57.9125 25.9957 57.9999 25.9092 57.9999 25.8025C57.9999 25.6959 57.9125 25.6094 57.8046 25.6094C57.6968 25.6094 57.6094 25.6959 57.6094 25.8025C57.6094 25.9092 57.6968 25.9957 57.8046 25.9957Z" fill="#0A0A0A"/>
<path d="M58.3515 26.5118C58.4486 26.5118 58.5272 26.4339 58.5272 26.3379C58.5272 26.2419 58.4486 26.1641 58.3515 26.1641C58.2545 26.1641 58.1758 26.2419 58.1758 26.3379C58.1758 26.4339 58.2545 26.5118 58.3515 26.5118Z" fill="#0A0A0A"/>
<path d="M58.3515 25.4297C58.4486 25.4297 58.5272 25.3519 58.5272 25.2559C58.5272 25.1599 58.4486 25.082 58.3515 25.082C58.2545 25.082 58.1758 25.1599 58.1758 25.2559C58.1758 25.3519 58.2545 25.4297 58.3515 25.4297Z" fill="#0A0A0A"/>
<path d="M59.4472 26.4736C59.5227 26.4736 59.5839 26.413 59.5839 26.3383C59.5839 26.2637 59.5227 26.2031 59.4472 26.2031C59.3717 26.2031 59.3105 26.2637 59.3105 26.3383C59.3105 26.413 59.3717 26.4736 59.4472 26.4736Z" fill="#0A0A0A"/>
<path d="M59.4472 25.3954C59.5227 25.3954 59.5839 25.3349 59.5839 25.2602C59.5839 25.1855 59.5227 25.125 59.4472 25.125C59.3717 25.125 59.3105 25.1855 59.3105 25.2602C59.3105 25.3349 59.3717 25.3954 59.4472 25.3954Z" fill="#0A0A0A"/>
<path d="M59.9941 25.9154C60.0588 25.9154 60.1113 25.8635 60.1113 25.7995C60.1113 25.7355 60.0588 25.6836 59.9941 25.6836C59.9294 25.6836 59.877 25.7355 59.877 25.7995C59.877 25.8635 59.9294 25.9154 59.9941 25.9154Z" fill="#0A0A0A"/>
<path d="M58.8984 25.9497C58.9847 25.9497 59.0546 25.8805 59.0546 25.7952C59.0546 25.7098 58.9847 25.6406 58.8984 25.6406C58.8121 25.6406 58.7422 25.7098 58.7422 25.7952C58.7422 25.8805 58.8121 25.9497 58.8984 25.9497Z" fill="#0A0A0A"/>
<path d="M60.539 26.4432C60.5929 26.4432 60.6367 26.3999 60.6367 26.3466C60.6367 26.2932 60.5929 26.25 60.539 26.25C60.4851 26.25 60.4414 26.2932 60.4414 26.3466C60.4414 26.3999 60.4851 26.4432 60.539 26.4432Z" fill="#0A0A0A"/>
<path d="M60.539 25.3533C60.5929 25.3533 60.6367 25.3101 60.6367 25.2567C60.6367 25.2034 60.5929 25.1602 60.539 25.1602C60.4851 25.1602 60.4414 25.2034 60.4414 25.2567C60.4414 25.3101 60.4851 25.3533 60.539 25.3533Z" fill="#0A0A0A"/>
<path d="M61.6404 26.4089C61.6737 26.4089 61.7008 26.3821 61.7008 26.349C61.7008 26.3159 61.6737 26.2891 61.6404 26.2891C61.6071 26.2891 61.5801 26.3159 61.5801 26.349C61.5801 26.3821 61.6071 26.4089 61.6404 26.4089Z" fill="#0A0A0A"/>
<path d="M61.6404 25.3191C61.6737 25.3191 61.7008 25.2922 61.7008 25.2591C61.7008 25.2261 61.6737 25.1992 61.6404 25.1992C61.6071 25.1992 61.5801 25.2261 61.5801 25.2591C61.5801 25.2922 61.6071 25.3191 61.6404 25.3191Z" fill="#0A0A0A"/>
<path d="M62.1867 25.8416C62.2089 25.8416 62.2269 25.8237 62.2269 25.8017C62.2269 25.7796 62.2089 25.7617 62.1867 25.7617C62.1645 25.7617 62.1465 25.7796 62.1465 25.8017C62.1465 25.8237 62.1645 25.8416 62.1867 25.8416Z" fill="#0A0A0A"/>
<path d="M61.0859 25.8694C61.129 25.8694 61.164 25.8348 61.164 25.7921C61.164 25.7494 61.129 25.7148 61.0859 25.7148C61.0428 25.7148 61.0078 25.7494 61.0078 25.7921C61.0078 25.8348 61.0428 25.8694 61.0859 25.8694Z" fill="#0A0A0A"/>
<path d="M62.7328 26.3677C62.7438 26.3677 62.7527 26.3588 62.7527 26.3479C62.7527 26.337 62.7438 26.3281 62.7328 26.3281C62.7218 26.3281 62.7129 26.337 62.7129 26.3479C62.7129 26.3588 62.7218 26.3677 62.7328 26.3677Z" fill="#0A0A0A"/>
<path d="M62.7328 25.2817C62.7438 25.2817 62.7527 25.2729 62.7527 25.262C62.7527 25.251 62.7438 25.2422 62.7328 25.2422C62.7218 25.2422 62.7129 25.251 62.7129 25.262C62.7129 25.2729 62.7218 25.2817 62.7328 25.2817Z" fill="#0A0A0A"/>
<path d="M51.2355 24.7596C51.2578 24.7596 51.2758 24.7417 51.2758 24.7196C51.2758 24.6976 51.2578 24.6797 51.2355 24.6797C51.2133 24.6797 51.1953 24.6976 51.1953 24.7196C51.1953 24.7417 51.2133 24.7596 51.2355 24.7596Z" fill="#0A0A0A"/>
<path d="M52.3261 24.7913C52.3693 24.7913 52.4043 24.7567 52.4043 24.714C52.4043 24.6713 52.3693 24.6367 52.3261 24.6367C52.283 24.6367 52.248 24.6713 52.248 24.714C52.248 24.7567 52.283 24.7913 52.3261 24.7913Z" fill="#0A0A0A"/>
<path d="M53.4257 24.8334C53.4904 24.8334 53.5429 24.7815 53.5429 24.7175C53.5429 24.6535 53.4904 24.6016 53.4257 24.6016C53.361 24.6016 53.3086 24.6535 53.3086 24.7175C53.3086 24.7815 53.361 24.8334 53.4257 24.8334Z" fill="#0A0A0A"/>
<path d="M55.6191 24.9059C55.7269 24.9059 55.8143 24.8194 55.8143 24.7127C55.8143 24.606 55.7269 24.5195 55.6191 24.5195C55.5112 24.5195 55.4238 24.606 55.4238 24.7127C55.4238 24.8194 55.5112 24.9059 55.6191 24.9059Z" fill="#0A0A0A"/>
<path d="M54.5214 24.8716C54.6077 24.8716 54.6776 24.8024 54.6776 24.717C54.6776 24.6317 54.6077 24.5625 54.5214 24.5625C54.4352 24.5625 54.3652 24.6317 54.3652 24.717C54.3652 24.8024 54.4352 24.8716 54.5214 24.8716Z" fill="#0A0A0A"/>
<path d="M56.7109 24.9099C56.8165 24.9099 56.9022 24.8251 56.9022 24.7206C56.9022 24.616 56.8165 24.5312 56.7109 24.5312C56.6052 24.5312 56.5195 24.616 56.5195 24.7206C56.5195 24.8251 56.6052 24.9099 56.7109 24.9099Z" fill="#0A0A0A"/>
<path d="M57.8027 24.8868C57.8997 24.8868 57.9784 24.8089 57.9784 24.7129C57.9784 24.6169 57.8997 24.5391 57.8027 24.5391C57.7056 24.5391 57.627 24.6169 57.627 24.7129C57.627 24.8089 57.7056 24.8868 57.8027 24.8868Z" fill="#0A0A0A"/>
<path d="M59.9941 24.8334C60.0588 24.8334 60.1113 24.7815 60.1113 24.7175C60.1113 24.6535 60.0588 24.6016 59.9941 24.6016C59.9294 24.6016 59.877 24.6535 59.877 24.7175C59.877 24.7815 59.9294 24.8334 59.9941 24.8334Z" fill="#0A0A0A"/>
<path d="M58.8984 24.8716C58.9847 24.8716 59.0546 24.8024 59.0546 24.717C59.0546 24.6317 58.9847 24.5625 58.8984 24.5625C58.8121 24.5625 58.7422 24.6317 58.7422 24.717C58.7422 24.8024 58.8121 24.8716 58.8984 24.8716Z" fill="#0A0A0A"/>
<path d="M62.1867 24.7596C62.2089 24.7596 62.2269 24.7417 62.2269 24.7196C62.2269 24.6976 62.2089 24.6797 62.1867 24.6797C62.1645 24.6797 62.1465 24.6976 62.1465 24.7196C62.1465 24.7417 62.1645 24.7596 62.1867 24.7596Z" fill="#0A0A0A"/>
<path d="M61.0859 24.7913C61.129 24.7913 61.164 24.7567 61.164 24.714C61.164 24.6713 61.129 24.6367 61.0859 24.6367C61.0428 24.6367 61.0078 24.6713 61.0078 24.714C61.0078 24.7567 61.0428 24.7913 61.0859 24.7913Z" fill="#0A0A0A"/>
<path d="M50.6898 19.8755C50.7008 19.8755 50.7097 19.8666 50.7097 19.8557C50.7097 19.8448 50.7008 19.8359 50.6898 19.8359C50.6788 19.8359 50.6699 19.8448 50.6699 19.8557C50.6699 19.8666 50.6788 19.8755 50.6898 19.8755Z" fill="#0A0A0A"/>
<path d="M50.6898 18.7896C50.7008 18.7896 50.7097 18.7807 50.7097 18.7698C50.7097 18.7589 50.7008 18.75 50.6898 18.75C50.6788 18.75 50.6699 18.7589 50.6699 18.7698C50.6699 18.7807 50.6788 18.7896 50.6898 18.7896Z" fill="#0A0A0A"/>
<path d="M51.2355 19.3494C51.2578 19.3494 51.2758 19.3316 51.2758 19.3095C51.2758 19.2874 51.2578 19.2695 51.2355 19.2695C51.2133 19.2695 51.1953 19.2874 51.1953 19.3095C51.1953 19.3316 51.2133 19.3494 51.2355 19.3494Z" fill="#0A0A0A"/>
<path d="M51.783 19.9128C51.8163 19.9128 51.8433 19.886 51.8433 19.8529C51.8433 19.8198 51.8163 19.793 51.783 19.793C51.7497 19.793 51.7227 19.8198 51.7227 19.8529C51.7227 19.886 51.7497 19.9128 51.783 19.9128Z" fill="#0A0A0A"/>
<path d="M51.783 18.8269C51.8163 18.8269 51.8433 18.8001 51.8433 18.767C51.8433 18.7339 51.8163 18.707 51.783 18.707C51.7497 18.707 51.7227 18.7339 51.7227 18.767C51.7227 18.8001 51.7497 18.8269 51.783 18.8269Z" fill="#0A0A0A"/>
<path d="M52.3261 19.385C52.3693 19.385 52.4043 19.3504 52.4043 19.3077C52.4043 19.2651 52.3693 19.2305 52.3261 19.2305C52.283 19.2305 52.248 19.2651 52.248 19.3077C52.248 19.3504 52.283 19.385 52.3261 19.385Z" fill="#0A0A0A"/>
<path d="M52.8769 19.951C52.9308 19.951 52.9745 19.9077 52.9745 19.8544C52.9745 19.8011 52.9308 19.7578 52.8769 19.7578C52.823 19.7578 52.7793 19.8011 52.7793 19.8544C52.7793 19.9077 52.823 19.951 52.8769 19.951Z" fill="#0A0A0A"/>
<path d="M52.8769 18.865C52.9308 18.865 52.9745 18.8218 52.9745 18.7685C52.9745 18.7151 52.9308 18.6719 52.8769 18.6719C52.823 18.6719 52.7793 18.7151 52.7793 18.7685C52.7793 18.8218 52.823 18.865 52.8769 18.865Z" fill="#0A0A0A"/>
<path d="M53.4257 19.4271C53.4904 19.4271 53.5429 19.3752 53.5429 19.3112C53.5429 19.2472 53.4904 19.1953 53.4257 19.1953C53.361 19.1953 53.3086 19.2472 53.3086 19.3112C53.3086 19.3752 53.361 19.4271 53.4257 19.4271Z" fill="#0A0A0A"/>
<path d="M53.9726 19.9853C54.0481 19.9853 54.1093 19.9247 54.1093 19.8501C54.1093 19.7754 54.0481 19.7148 53.9726 19.7148C53.8971 19.7148 53.8359 19.7754 53.8359 19.8501C53.8359 19.9247 53.8971 19.9853 53.9726 19.9853Z" fill="#0A0A0A"/>
<path d="M53.9726 18.8994C54.0481 18.8994 54.1093 18.8388 54.1093 18.7641C54.1093 18.6894 54.0481 18.6289 53.9726 18.6289C53.8971 18.6289 53.8359 18.6894 53.8359 18.7641C53.8359 18.8388 53.8971 18.8994 53.9726 18.8994Z" fill="#0A0A0A"/>
<path d="M55.0663 20.0274C55.1634 20.0274 55.2421 19.9496 55.2421 19.8535C55.2421 19.7575 55.1634 19.6797 55.0663 19.6797C54.9693 19.6797 54.8906 19.7575 54.8906 19.8535C54.8906 19.9496 54.9693 20.0274 55.0663 20.0274Z" fill="#0A0A0A"/>
<path d="M55.0663 18.9376C55.1634 18.9376 55.2421 18.8597 55.2421 18.7637C55.2421 18.6677 55.1634 18.5898 55.0663 18.5898C54.9693 18.5898 54.8906 18.6677 54.8906 18.7637C54.8906 18.8597 54.9693 18.9376 55.0663 18.9376Z" fill="#0A0A0A"/>
<path d="M55.6191 19.4958C55.7247 19.4958 55.8104 19.4111 55.8104 19.3065C55.8104 19.2019 55.7247 19.1172 55.6191 19.1172C55.5134 19.1172 55.4277 19.2019 55.4277 19.3065C55.4277 19.4111 55.5134 19.4958 55.6191 19.4958Z" fill="#0A0A0A"/>
<path d="M54.5214 19.4614C54.6077 19.4614 54.6776 19.3922 54.6776 19.3069C54.6776 19.2215 54.6077 19.1523 54.5214 19.1523C54.4352 19.1523 54.3652 19.2215 54.3652 19.3069C54.3652 19.3922 54.4352 19.4614 54.5214 19.4614Z" fill="#0A0A0A"/>
<path d="M56.164 20.0349C56.2697 20.0349 56.3553 19.9501 56.3553 19.8456C56.3553 19.741 56.2697 19.6562 56.164 19.6562C56.0583 19.6562 55.9727 19.741 55.9727 19.8456C55.9727 19.9501 56.0583 20.0349 56.164 20.0349Z" fill="#0A0A0A"/>
<path d="M56.164 18.9489C56.2697 18.9489 56.3553 18.8642 56.3553 18.7596C56.3553 18.6551 56.2697 18.5703 56.164 18.5703C56.0583 18.5703 55.9727 18.6551 55.9727 18.7596C55.9727 18.8642 56.0583 18.9489 56.164 18.9489Z" fill="#0A0A0A"/>
<path d="M56.7109 19.4958C56.8165 19.4958 56.9022 19.4111 56.9022 19.3065C56.9022 19.2019 56.8165 19.1172 56.7109 19.1172C56.6052 19.1172 56.5195 19.2019 56.5195 19.3065C56.5195 19.4111 56.6052 19.4958 56.7109 19.4958Z" fill="#0A0A0A"/>
<path d="M57.2617 20.0349C57.3673 20.0349 57.453 19.9501 57.453 19.8456C57.453 19.741 57.3673 19.6562 57.2617 19.6562C57.156 19.6562 57.0703 19.741 57.0703 19.8456C57.0703 19.9501 57.156 20.0349 57.2617 20.0349Z" fill="#0A0A0A"/>
<path d="M57.2617 18.9489C57.3673 18.9489 57.453 18.8642 57.453 18.7596C57.453 18.6551 57.3673 18.5703 57.2617 18.5703C57.156 18.5703 57.0703 18.6551 57.0703 18.7596C57.0703 18.8642 57.156 18.9489 57.2617 18.9489Z" fill="#0A0A0A"/>
<path d="M57.8046 19.4996C57.9125 19.4996 57.9999 19.4131 57.9999 19.3065C57.9999 19.1998 57.9125 19.1133 57.8046 19.1133C57.6968 19.1133 57.6094 19.1998 57.6094 19.3065C57.6094 19.4131 57.6968 19.4996 57.8046 19.4996Z" fill="#0A0A0A"/>
<path d="M58.3515 20.0274C58.4486 20.0274 58.5272 19.9496 58.5272 19.8535C58.5272 19.7575 58.4486 19.6797 58.3515 19.6797C58.2545 19.6797 58.1758 19.7575 58.1758 19.8535C58.1758 19.9496 58.2545 20.0274 58.3515 20.0274Z" fill="#0A0A0A"/>
<path d="M58.3515 18.9376C58.4486 18.9376 58.5272 18.8597 58.5272 18.7637C58.5272 18.6677 58.4486 18.5898 58.3515 18.5898C58.2545 18.5898 58.1758 18.6677 58.1758 18.7637C58.1758 18.8597 58.2545 18.9376 58.3515 18.9376Z" fill="#0A0A0A"/>
<path d="M59.4472 19.9853C59.5227 19.9853 59.5839 19.9247 59.5839 19.8501C59.5839 19.7754 59.5227 19.7148 59.4472 19.7148C59.3717 19.7148 59.3105 19.7754 59.3105 19.8501C59.3105 19.9247 59.3717 19.9853 59.4472 19.9853Z" fill="#0A0A0A"/>
<path d="M59.4472 18.8994C59.5227 18.8994 59.5839 18.8388 59.5839 18.7641C59.5839 18.6894 59.5227 18.6289 59.4472 18.6289C59.3717 18.6289 59.3105 18.6894 59.3105 18.7641C59.3105 18.8388 59.3717 18.8994 59.4472 18.8994Z" fill="#0A0A0A"/>
<path d="M59.9941 19.4271C60.0588 19.4271 60.1113 19.3752 60.1113 19.3112C60.1113 19.2472 60.0588 19.1953 59.9941 19.1953C59.9294 19.1953 59.877 19.2472 59.877 19.3112C59.877 19.3752 59.9294 19.4271 59.9941 19.4271Z" fill="#0A0A0A"/>
<path d="M58.8984 19.4614C58.9847 19.4614 59.0546 19.3922 59.0546 19.3069C59.0546 19.2215 58.9847 19.1523 58.8984 19.1523C58.8121 19.1523 58.7422 19.2215 58.7422 19.3069C58.7422 19.3922 58.8121 19.4614 58.8984 19.4614Z" fill="#0A0A0A"/>
<path d="M60.539 19.951C60.5929 19.951 60.6367 19.9077 60.6367 19.8544C60.6367 19.8011 60.5929 19.7578 60.539 19.7578C60.4851 19.7578 60.4414 19.8011 60.4414 19.8544C60.4414 19.9077 60.4851 19.951 60.539 19.951Z" fill="#0A0A0A"/>
<path d="M60.539 18.865C60.5929 18.865 60.6367 18.8218 60.6367 18.7685C60.6367 18.7151 60.5929 18.6719 60.539 18.6719C60.4851 18.6719 60.4414 18.7151 60.4414 18.7685C60.4414 18.8218 60.4851 18.865 60.539 18.865Z" fill="#0A0A0A"/>
<path d="M61.6398 19.8963C61.6621 19.8963 61.6801 19.8784 61.6801 19.8564C61.6801 19.8343 61.6621 19.8164 61.6398 19.8164C61.6176 19.8164 61.5996 19.8343 61.5996 19.8564C61.5996 19.8784 61.6176 19.8963 61.6398 19.8963Z" fill="#0A0A0A"/>
<path d="M61.6404 18.8269C61.6737 18.8269 61.7008 18.8001 61.7008 18.767C61.7008 18.7339 61.6737 18.707 61.6404 18.707C61.6071 18.707 61.5801 18.7339 61.5801 18.767C61.5801 18.8001 61.6071 18.8269 61.6404 18.8269Z" fill="#0A0A0A"/>
<path d="M62.1867 19.3494C62.2089 19.3494 62.2269 19.3316 62.2269 19.3095C62.2269 19.2874 62.2089 19.2695 62.1867 19.2695C62.1645 19.2695 62.1465 19.2874 62.1465 19.3095C62.1465 19.3316 62.1645 19.3494 62.1867 19.3494Z" fill="#0A0A0A"/>
<path d="M61.0859 19.385C61.129 19.385 61.164 19.3504 61.164 19.3077C61.164 19.2651 61.129 19.2305 61.0859 19.2305C61.0428 19.2305 61.0078 19.2651 61.0078 19.3077C61.0078 19.3504 61.0428 19.385 61.0859 19.385Z" fill="#0A0A0A"/>
<path d="M62.7328 19.8755C62.7438 19.8755 62.7527 19.8666 62.7527 19.8557C62.7527 19.8448 62.7438 19.8359 62.7328 19.8359C62.7218 19.8359 62.7129 19.8448 62.7129 19.8557C62.7129 19.8666 62.7218 19.8755 62.7328 19.8755Z" fill="#0A0A0A"/>
<path d="M62.7328 18.7896C62.7438 18.7896 62.7527 18.7807 62.7527 18.7698C62.7527 18.7589 62.7438 18.75 62.7328 18.75C62.7218 18.75 62.7129 18.7589 62.7129 18.7698C62.7129 18.7807 62.7218 18.7896 62.7328 18.7896Z" fill="#0A0A0A"/>
<path d="M51.2355 18.2674C51.2578 18.2674 51.2758 18.2495 51.2758 18.2275C51.2758 18.2054 51.2578 18.1875 51.2355 18.1875C51.2133 18.1875 51.1953 18.2054 51.1953 18.2275C51.1953 18.2495 51.2133 18.2674 51.2355 18.2674Z" fill="#0A0A0A"/>
<path d="M52.3261 18.303C52.3693 18.303 52.4043 18.2684 52.4043 18.2257C52.4043 18.183 52.3693 18.1484 52.3261 18.1484C52.283 18.1484 52.248 18.183 52.248 18.2257C52.248 18.2684 52.283 18.303 52.3261 18.303Z" fill="#0A0A0A"/>
<path d="M53.4257 18.3412C53.4904 18.3412 53.5429 18.2893 53.5429 18.2253C53.5429 18.1613 53.4904 18.1094 53.4257 18.1094C53.361 18.1094 53.3086 18.1613 53.3086 18.2253C53.3086 18.2893 53.361 18.3412 53.4257 18.3412Z" fill="#0A0A0A"/>
<path d="M55.6191 18.4138C55.7247 18.4138 55.8104 18.329 55.8104 18.2245C55.8104 18.1199 55.7247 18.0352 55.6191 18.0352C55.5134 18.0352 55.4277 18.1199 55.4277 18.2245C55.4277 18.329 55.5134 18.4138 55.6191 18.4138Z" fill="#0A0A0A"/>
<path d="M54.5214 18.3794C54.6077 18.3794 54.6776 18.3102 54.6776 18.2249C54.6776 18.1395 54.6077 18.0703 54.5214 18.0703C54.4352 18.0703 54.3652 18.1395 54.3652 18.2249C54.3652 18.3102 54.4352 18.3794 54.5214 18.3794Z" fill="#0A0A0A"/>
<path d="M56.7109 18.4138C56.8165 18.4138 56.9022 18.329 56.9022 18.2245C56.9022 18.1199 56.8165 18.0352 56.7109 18.0352C56.6052 18.0352 56.5195 18.1199 56.5195 18.2245C56.5195 18.329 56.6052 18.4138 56.7109 18.4138Z" fill="#0A0A0A"/>
<path d="M57.8046 18.4137C57.9125 18.4137 57.9999 18.3272 57.9999 18.2205C57.9999 18.1138 57.9125 18.0273 57.8046 18.0273C57.6968 18.0273 57.6094 18.1138 57.6094 18.2205C57.6094 18.3272 57.6968 18.4137 57.8046 18.4137Z" fill="#0A0A0A"/>
<path d="M59.9941 18.3412C60.0588 18.3412 60.1113 18.2893 60.1113 18.2253C60.1113 18.1613 60.0588 18.1094 59.9941 18.1094C59.9294 18.1094 59.877 18.1613 59.877 18.2253C59.877 18.2893 59.9294 18.3412 59.9941 18.3412Z" fill="#0A0A0A"/>
<path d="M58.8984 18.3794C58.9847 18.3794 59.0546 18.3102 59.0546 18.2249C59.0546 18.1395 58.9847 18.0703 58.8984 18.0703C58.8121 18.0703 58.7422 18.1395 58.7422 18.2249C58.7422 18.3102 58.8121 18.3794 58.8984 18.3794Z" fill="#0A0A0A"/>
<path d="M62.1867 18.2674C62.2089 18.2674 62.2269 18.2495 62.2269 18.2275C62.2269 18.2054 62.2089 18.1875 62.1867 18.1875C62.1645 18.1875 62.1465 18.2054 62.1465 18.2275C62.1465 18.2495 62.1645 18.2674 62.1867 18.2674Z" fill="#0A0A0A"/>
<path d="M61.0859 18.303C61.129 18.303 61.164 18.2684 61.164 18.2257C61.164 18.183 61.129 18.1484 61.0859 18.1484C61.0428 18.1484 61.0078 18.183 61.0078 18.2257C61.0078 18.2684 61.0428 18.303 61.0859 18.303Z" fill="#0A0A0A"/>
<path d="M50.6898 17.7075C50.7008 17.7075 50.7097 17.6987 50.7097 17.6877C50.7097 17.6768 50.7008 17.668 50.6898 17.668C50.6788 17.668 50.6699 17.6768 50.6699 17.6877C50.6699 17.6987 50.6788 17.7075 50.6898 17.7075Z" fill="#0A0A0A"/>
<path d="M51.783 17.7488C51.8163 17.7488 51.8433 17.7219 51.8433 17.6888C51.8433 17.6557 51.8163 17.6289 51.783 17.6289C51.7497 17.6289 51.7227 17.6557 51.7227 17.6888C51.7227 17.7219 51.7497 17.7488 51.783 17.7488Z" fill="#0A0A0A"/>
<path d="M52.8769 17.783C52.9308 17.783 52.9745 17.7398 52.9745 17.6864C52.9745 17.6331 52.9308 17.5898 52.8769 17.5898C52.823 17.5898 52.7793 17.6331 52.7793 17.6864C52.7793 17.7398 52.823 17.783 52.8769 17.783Z" fill="#0A0A0A"/>
<path d="M53.9745 17.8708C54.0802 17.8708 54.1659 17.7861 54.1659 17.6815C54.1659 17.5769 54.0802 17.4922 53.9745 17.4922C53.8689 17.4922 53.7832 17.5769 53.7832 17.6815C53.7832 17.7861 53.8689 17.8708 53.9745 17.8708Z" fill="#0A0A0A"/>
<path d="M55.0663 17.8708C55.172 17.8708 55.2577 17.7861 55.2577 17.6815C55.2577 17.5769 55.172 17.4922 55.0663 17.4922C54.9607 17.4922 54.875 17.5769 54.875 17.6815C54.875 17.7861 54.9607 17.8708 55.0663 17.8708Z" fill="#0A0A0A"/>
<path d="M56.164 17.8708C56.2697 17.8708 56.3553 17.7861 56.3553 17.6815C56.3553 17.5769 56.2697 17.4922 56.164 17.4922C56.0583 17.4922 55.9727 17.5769 55.9727 17.6815C55.9727 17.7861 56.0583 17.8708 56.164 17.8708Z" fill="#0A0A0A"/>
<path d="M57.2578 17.8708C57.3634 17.8708 57.4491 17.7861 57.4491 17.6815C57.4491 17.5769 57.3634 17.4922 57.2578 17.4922C57.1521 17.4922 57.0664 17.5769 57.0664 17.6815C57.0664 17.7861 57.1521 17.8708 57.2578 17.8708Z" fill="#0A0A0A"/>
<path d="M58.3515 17.8555C58.4486 17.8555 58.5272 17.7777 58.5272 17.6817C58.5272 17.5857 58.4486 17.5078 58.3515 17.5078C58.2545 17.5078 58.1758 17.5857 58.1758 17.6817C58.1758 17.7777 58.2545 17.8555 58.3515 17.8555Z" fill="#0A0A0A"/>
<path d="M59.4472 17.8173C59.5227 17.8173 59.5839 17.7568 59.5839 17.6821C59.5839 17.6074 59.5227 17.5469 59.4472 17.5469C59.3717 17.5469 59.3105 17.6074 59.3105 17.6821C59.3105 17.7568 59.3717 17.8173 59.4472 17.8173Z" fill="#0A0A0A"/>
<path d="M60.539 17.783C60.5929 17.783 60.6367 17.7398 60.6367 17.6864C60.6367 17.6331 60.5929 17.5898 60.539 17.5898C60.4851 17.5898 60.4414 17.6331 60.4414 17.6864C60.4414 17.7398 60.4851 17.783 60.539 17.783Z" fill="#0A0A0A"/>
<path d="M61.6404 17.7488C61.6737 17.7488 61.7008 17.7219 61.7008 17.6888C61.7008 17.6557 61.6737 17.6289 61.6404 17.6289C61.6071 17.6289 61.5801 17.6557 61.5801 17.6888C61.5801 17.7219 61.6071 17.7488 61.6404 17.7488Z" fill="#0A0A0A"/>
<path d="M62.7328 17.7075C62.7438 17.7075 62.7527 17.6987 62.7527 17.6877C62.7527 17.6768 62.7438 17.668 62.7328 17.668C62.7218 17.668 62.7129 17.6768 62.7129 17.6877C62.7129 17.6987 62.7218 17.7075 62.7328 17.7075Z" fill="#0A0A0A"/>
<path d="M50.6898 20.9536C50.7008 20.9536 50.7097 20.9448 50.7097 20.9338C50.7097 20.9229 50.7008 20.9141 50.6898 20.9141C50.6788 20.9141 50.6699 20.9229 50.6699 20.9338C50.6699 20.9448 50.6788 20.9536 50.6898 20.9536Z" fill="#0A0A0A"/>
<path d="M51.2355 21.5174C51.2578 21.5174 51.2758 21.4995 51.2758 21.4775C51.2758 21.4554 51.2578 21.4375 51.2355 21.4375C51.2133 21.4375 51.1953 21.4554 51.1953 21.4775C51.1953 21.4995 51.2133 21.5174 51.2355 21.5174Z" fill="#0A0A0A"/>
<path d="M51.783 20.991C51.8163 20.991 51.8433 20.9641 51.8433 20.931C51.8433 20.8979 51.8163 20.8711 51.783 20.8711C51.7497 20.8711 51.7227 20.8979 51.7227 20.931C51.7227 20.9641 51.7497 20.991 51.783 20.991Z" fill="#0A0A0A"/>
<path d="M52.3261 21.5491C52.3693 21.5491 52.4043 21.5145 52.4043 21.4718C52.4043 21.4291 52.3693 21.3945 52.3261 21.3945C52.283 21.3945 52.248 21.4291 52.248 21.4718C52.248 21.5145 52.283 21.5491 52.3261 21.5491Z" fill="#0A0A0A"/>
<path d="M52.8769 21.0291C52.9308 21.0291 52.9745 20.9859 52.9745 20.9325C52.9745 20.8792 52.9308 20.8359 52.8769 20.8359C52.823 20.8359 52.7793 20.8792 52.7793 20.9325C52.7793 20.9859 52.823 21.0291 52.8769 21.0291Z" fill="#0A0A0A"/>
<path d="M53.4257 21.5834C53.4904 21.5834 53.5429 21.5315 53.5429 21.4675C53.5429 21.4035 53.4904 21.3516 53.4257 21.3516C53.361 21.3516 53.3086 21.4035 53.3086 21.4675C53.3086 21.5315 53.361 21.5834 53.4257 21.5834Z" fill="#0A0A0A"/>
<path d="M53.9726 21.0634C54.0481 21.0634 54.1093 21.0029 54.1093 20.9282C54.1093 20.8535 54.0481 20.793 53.9726 20.793C53.8971 20.793 53.8359 20.8535 53.8359 20.9282C53.8359 21.0029 53.8971 21.0634 53.9726 21.0634Z" fill="#0A0A0A"/>
<path d="M55.0663 21.1055C55.1634 21.1055 55.2421 21.0277 55.2421 20.9317C55.2421 20.8357 55.1634 20.7578 55.0663 20.7578C54.9693 20.7578 54.8906 20.8357 54.8906 20.9317C54.8906 21.0277 54.9693 21.1055 55.0663 21.1055Z" fill="#0A0A0A"/>
<path d="M55.6191 21.6599C55.7247 21.6599 55.8104 21.5751 55.8104 21.4706C55.8104 21.366 55.7247 21.2812 55.6191 21.2812C55.5134 21.2812 55.4277 21.366 55.4277 21.4706C55.4277 21.5751 55.5134 21.6599 55.6191 21.6599Z" fill="#0A0A0A"/>
<path d="M54.5214 21.6216C54.6077 21.6216 54.6776 21.5524 54.6776 21.467C54.6776 21.3817 54.6077 21.3125 54.5214 21.3125C54.4352 21.3125 54.3652 21.3817 54.3652 21.467C54.3652 21.5524 54.4352 21.6216 54.5214 21.6216Z" fill="#0A0A0A"/>
<path d="M56.164 21.1169C56.2697 21.1169 56.3553 21.0321 56.3553 20.9276C56.3553 20.823 56.2697 20.7383 56.164 20.7383C56.0583 20.7383 55.9727 20.823 55.9727 20.9276C55.9727 21.0321 56.0583 21.1169 56.164 21.1169Z" fill="#0A0A0A"/>
<path d="M56.7109 21.6599C56.8165 21.6599 56.9022 21.5751 56.9022 21.4706C56.9022 21.366 56.8165 21.2812 56.7109 21.2812C56.6052 21.2812 56.5195 21.366 56.5195 21.4706C56.5195 21.5751 56.6052 21.6599 56.7109 21.6599Z" fill="#0A0A0A"/>
<path d="M57.2578 21.1169C57.3634 21.1169 57.4491 21.0321 57.4491 20.9276C57.4491 20.823 57.3634 20.7383 57.2578 20.7383C57.1521 20.7383 57.0664 20.823 57.0664 20.9276C57.0664 21.0321 57.1521 21.1169 57.2578 21.1169Z" fill="#0A0A0A"/>
<path d="M57.8046 21.6598C57.9125 21.6598 57.9999 21.5733 57.9999 21.4666C57.9999 21.3599 57.9125 21.2734 57.8046 21.2734C57.6968 21.2734 57.6094 21.3599 57.6094 21.4666C57.6094 21.5733 57.6968 21.6598 57.8046 21.6598Z" fill="#0A0A0A"/>
<path d="M58.3515 21.1055C58.4486 21.1055 58.5272 21.0277 58.5272 20.9317C58.5272 20.8357 58.4486 20.7578 58.3515 20.7578C58.2545 20.7578 58.1758 20.8357 58.1758 20.9317C58.1758 21.0277 58.2545 21.1055 58.3515 21.1055Z" fill="#0A0A0A"/>
<path d="M59.4472 21.0634C59.5227 21.0634 59.5839 21.0029 59.5839 20.9282C59.5839 20.8535 59.5227 20.793 59.4472 20.793C59.3717 20.793 59.3105 20.8535 59.3105 20.9282C59.3105 21.0029 59.3717 21.0634 59.4472 21.0634Z" fill="#0A0A0A"/>
<path d="M59.9941 21.5834C60.0588 21.5834 60.1113 21.5315 60.1113 21.4675C60.1113 21.4035 60.0588 21.3516 59.9941 21.3516C59.9294 21.3516 59.877 21.4035 59.877 21.4675C59.877 21.5315 59.9294 21.5834 59.9941 21.5834Z" fill="#0A0A0A"/>
<path d="M58.8984 21.6216C58.9847 21.6216 59.0546 21.5524 59.0546 21.467C59.0546 21.3817 58.9847 21.3125 58.8984 21.3125C58.8121 21.3125 58.7422 21.3817 58.7422 21.467C58.7422 21.5524 58.8121 21.6216 58.8984 21.6216Z" fill="#0A0A0A"/>
<path d="M60.539 21.0291C60.5929 21.0291 60.6367 20.9859 60.6367 20.9325C60.6367 20.8792 60.5929 20.8359 60.539 20.8359C60.4851 20.8359 60.4414 20.8792 60.4414 20.9325C60.4414 20.9859 60.4851 21.0291 60.539 21.0291Z" fill="#0A0A0A"/>
<path d="M61.6404 20.991C61.6737 20.991 61.7008 20.9641 61.7008 20.931C61.7008 20.8979 61.6737 20.8711 61.6404 20.8711C61.6071 20.8711 61.5801 20.8979 61.5801 20.931C61.5801 20.9641 61.6071 20.991 61.6404 20.991Z" fill="#0A0A0A"/>
<path d="M62.1867 21.5174C62.2089 21.5174 62.2269 21.4995 62.2269 21.4775C62.2269 21.4554 62.2089 21.4375 62.1867 21.4375C62.1645 21.4375 62.1465 21.4554 62.1465 21.4775C62.1465 21.4995 62.1645 21.5174 62.1867 21.5174Z" fill="#0A0A0A"/>
<path d="M61.0859 21.5491C61.129 21.5491 61.164 21.5145 61.164 21.4718C61.164 21.4291 61.129 21.3945 61.0859 21.3945C61.0428 21.3945 61.0078 21.4291 61.0078 21.4718C61.0078 21.5145 61.0428 21.5491 61.0859 21.5491Z" fill="#0A0A0A"/>
<path d="M62.7328 20.9536C62.7438 20.9536 62.7527 20.9448 62.7527 20.9338C62.7527 20.9229 62.7438 20.9141 62.7328 20.9141C62.7218 20.9141 62.7129 20.9229 62.7129 20.9338C62.7129 20.9448 62.7218 20.9536 62.7328 20.9536Z" fill="#0A0A0A"/>
<path d="M51.2355 20.4354C51.2578 20.4354 51.2758 20.4175 51.2758 20.3954C51.2758 20.3734 51.2578 20.3555 51.2355 20.3555C51.2133 20.3555 51.1953 20.3734 51.1953 20.3954C51.1953 20.4175 51.2133 20.4354 51.2355 20.4354Z" fill="#0A0A0A"/>
<path d="M52.3261 20.467C52.3693 20.467 52.4043 20.4324 52.4043 20.3898C52.4043 20.3471 52.3693 20.3125 52.3261 20.3125C52.283 20.3125 52.248 20.3471 52.248 20.3898C52.248 20.4324 52.283 20.467 52.3261 20.467Z" fill="#0A0A0A"/>
<path d="M53.4257 20.5052C53.4904 20.5052 53.5429 20.4534 53.5429 20.3893C53.5429 20.3253 53.4904 20.2734 53.4257 20.2734C53.361 20.2734 53.3086 20.3253 53.3086 20.3893C53.3086 20.4534 53.361 20.5052 53.4257 20.5052Z" fill="#0A0A0A"/>
<path d="M55.6191 20.5739C55.7247 20.5739 55.8104 20.4892 55.8104 20.3846C55.8104 20.2801 55.7247 20.1953 55.6191 20.1953C55.5134 20.1953 55.4277 20.2801 55.4277 20.3846C55.4277 20.4892 55.5134 20.5739 55.6191 20.5739Z" fill="#0A0A0A"/>
<path d="M54.5214 20.5435C54.6077 20.5435 54.6776 20.4743 54.6776 20.3889C54.6776 20.3036 54.6077 20.2344 54.5214 20.2344C54.4352 20.2344 54.3652 20.3036 54.3652 20.3889C54.3652 20.4743 54.4352 20.5435 54.5214 20.5435Z" fill="#0A0A0A"/>
<path d="M56.7109 20.5739C56.8165 20.5739 56.9022 20.4892 56.9022 20.3846C56.9022 20.2801 56.8165 20.1953 56.7109 20.1953C56.6052 20.1953 56.5195 20.2801 56.5195 20.3846C56.5195 20.4892 56.6052 20.5739 56.7109 20.5739Z" fill="#0A0A0A"/>
<path d="M57.8046 20.5817C57.9125 20.5817 57.9999 20.4952 57.9999 20.3885C57.9999 20.2818 57.9125 20.1953 57.8046 20.1953C57.6968 20.1953 57.6094 20.2818 57.6094 20.3885C57.6094 20.4952 57.6968 20.5817 57.8046 20.5817Z" fill="#0A0A0A"/>
<path d="M59.9941 20.5052C60.0588 20.5052 60.1113 20.4534 60.1113 20.3893C60.1113 20.3253 60.0588 20.2734 59.9941 20.2734C59.9294 20.2734 59.877 20.3253 59.877 20.3893C59.877 20.4534 59.9294 20.5052 59.9941 20.5052Z" fill="#0A0A0A"/>
<path d="M58.8984 20.5435C58.9847 20.5435 59.0546 20.4743 59.0546 20.3889C59.0546 20.3036 58.9847 20.2344 58.8984 20.2344C58.8121 20.2344 58.7422 20.3036 58.7422 20.3889C58.7422 20.4743 58.8121 20.5435 58.8984 20.5435Z" fill="#0A0A0A"/>
<path d="M62.1867 20.4354C62.2089 20.4354 62.2269 20.4175 62.2269 20.3954C62.2269 20.3734 62.2089 20.3555 62.1867 20.3555C62.1645 20.3555 62.1465 20.3734 62.1465 20.3954C62.1465 20.4175 62.1645 20.4354 62.1867 20.4354Z" fill="#0A0A0A"/>
<path d="M61.0859 20.467C61.129 20.467 61.164 20.4324 61.164 20.3898C61.164 20.3471 61.129 20.3125 61.0859 20.3125C61.0428 20.3125 61.0078 20.3471 61.0078 20.3898C61.0078 20.4324 61.0428 20.467 61.0859 20.467Z" fill="#0A0A0A"/>
<path d="M50.6898 28.5278C50.7008 28.5278 50.7097 28.519 50.7097 28.5081C50.7097 28.4971 50.7008 28.4883 50.6898 28.4883C50.6788 28.4883 50.6699 28.4971 50.6699 28.5081C50.6699 28.519 50.6788 28.5278 50.6898 28.5278Z" fill="#0A0A0A"/>
<path d="M50.6898 27.4458C50.7008 27.4458 50.7097 27.437 50.7097 27.426C50.7097 27.4151 50.7008 27.4062 50.6898 27.4062C50.6788 27.4062 50.6699 27.4151 50.6699 27.426C50.6699 27.437 50.6788 27.4458 50.6898 27.4458Z" fill="#0A0A0A"/>
<path d="M51.2355 28.0057C51.2578 28.0057 51.2758 27.9878 51.2758 27.9657C51.2758 27.9437 51.2578 27.9258 51.2355 27.9258C51.2133 27.9258 51.1953 27.9437 51.1953 27.9657C51.1953 27.9878 51.2133 28.0057 51.2355 28.0057Z" fill="#0A0A0A"/>
<path d="M51.783 28.5691C51.8163 28.5691 51.8433 28.5422 51.8433 28.5091C51.8433 28.476 51.8163 28.4492 51.783 28.4492C51.7497 28.4492 51.7227 28.476 51.7227 28.5091C51.7227 28.5422 51.7497 28.5691 51.783 28.5691Z" fill="#0A0A0A"/>
<path d="M51.783 27.487C51.8163 27.487 51.8433 27.4602 51.8433 27.4271C51.8433 27.394 51.8163 27.3672 51.783 27.3672C51.7497 27.3672 51.7227 27.394 51.7227 27.4271C51.7227 27.4602 51.7497 27.487 51.783 27.487Z" fill="#0A0A0A"/>
<path d="M52.3261 28.0413C52.3693 28.0413 52.4043 28.0067 52.4043 27.964C52.4043 27.9213 52.3693 27.8867 52.3261 27.8867C52.283 27.8867 52.248 27.9213 52.248 27.964C52.248 28.0067 52.283 28.0413 52.3261 28.0413Z" fill="#0A0A0A"/>
<path d="M52.8769 28.6033C52.9308 28.6033 52.9745 28.5601 52.9745 28.5067C52.9745 28.4534 52.9308 28.4102 52.8769 28.4102C52.823 28.4102 52.7793 28.4534 52.7793 28.5067C52.7793 28.5601 52.823 28.6033 52.8769 28.6033Z" fill="#0A0A0A"/>
<path d="M52.8769 27.5213C52.9308 27.5213 52.9745 27.4781 52.9745 27.4247C52.9745 27.3714 52.9308 27.3281 52.8769 27.3281C52.823 27.3281 52.7793 27.3714 52.7793 27.4247C52.7793 27.4781 52.823 27.5213 52.8769 27.5213Z" fill="#0A0A0A"/>
<path d="M53.4257 28.0756C53.4904 28.0756 53.5429 28.0237 53.5429 27.9597C53.5429 27.8956 53.4904 27.8438 53.4257 27.8438C53.361 27.8438 53.3086 27.8956 53.3086 27.9597C53.3086 28.0237 53.361 28.0756 53.4257 28.0756Z" fill="#0A0A0A"/>
<path d="M53.9726 28.6415C54.0481 28.6415 54.1093 28.581 54.1093 28.5063C54.1093 28.4316 54.0481 28.3711 53.9726 28.3711C53.8971 28.3711 53.8359 28.4316 53.8359 28.5063C53.8359 28.581 53.8971 28.6415 53.9726 28.6415Z" fill="#0A0A0A"/>
<path d="M53.9726 27.5517C54.0481 27.5517 54.1093 27.4912 54.1093 27.4165C54.1093 27.3418 54.0481 27.2812 53.9726 27.2812C53.8971 27.2812 53.8359 27.3418 53.8359 27.4165C53.8359 27.4912 53.8971 27.5517 53.9726 27.5517Z" fill="#0A0A0A"/>
<path d="M55.0663 28.6797C55.1634 28.6797 55.2421 28.6019 55.2421 28.5059C55.2421 28.4099 55.1634 28.332 55.0663 28.332C54.9693 28.332 54.8906 28.4099 54.8906 28.5059C54.8906 28.6019 54.9693 28.6797 55.0663 28.6797Z" fill="#0A0A0A"/>
<path d="M55.0663 27.5899C55.1634 27.5899 55.2421 27.5121 55.2421 27.416C55.2421 27.32 55.1634 27.2422 55.0663 27.2422C54.9693 27.2422 54.8906 27.32 54.8906 27.416C54.8906 27.5121 54.9693 27.5899 55.0663 27.5899Z" fill="#0A0A0A"/>
<path d="M55.6191 28.152C55.7269 28.152 55.8143 28.0655 55.8143 27.9588C55.8143 27.8521 55.7269 27.7656 55.6191 27.7656C55.5112 27.7656 55.4238 27.8521 55.4238 27.9588C55.4238 28.0655 55.5112 28.152 55.6191 28.152Z" fill="#0A0A0A"/>
<path d="M54.5214 28.1177C54.6077 28.1177 54.6776 28.0485 54.6776 27.9631C54.6776 27.8778 54.6077 27.8086 54.5214 27.8086C54.4352 27.8086 54.3652 27.8778 54.3652 27.9631C54.3652 28.0485 54.4352 28.1177 54.5214 28.1177Z" fill="#0A0A0A"/>
<path d="M56.164 28.695C56.2697 28.695 56.3553 28.6103 56.3553 28.5057C56.3553 28.4012 56.2697 28.3164 56.164 28.3164C56.0583 28.3164 55.9727 28.4012 55.9727 28.5057C55.9727 28.6103 56.0583 28.695 56.164 28.695Z" fill="#0A0A0A"/>
<path d="M56.164 27.6091C56.2697 27.6091 56.3553 27.5243 56.3553 27.4198C56.3553 27.3152 56.2697 27.2305 56.164 27.2305C56.0583 27.2305 55.9727 27.3152 55.9727 27.4198C55.9727 27.5243 56.0583 27.6091 56.164 27.6091Z" fill="#0A0A0A"/>
<path d="M56.7109 28.1482C56.8165 28.1482 56.9022 28.0634 56.9022 27.9588C56.9022 27.8543 56.8165 27.7695 56.7109 27.7695C56.6052 27.7695 56.5195 27.8543 56.5195 27.9588C56.5195 28.0634 56.6052 28.1482 56.7109 28.1482Z" fill="#0A0A0A"/>
<path d="M57.2578 28.695C57.3634 28.695 57.4491 28.6103 57.4491 28.5057C57.4491 28.4012 57.3634 28.3164 57.2578 28.3164C57.1521 28.3164 57.0664 28.4012 57.0664 28.5057C57.0664 28.6103 57.1521 28.695 57.2578 28.695Z" fill="#0A0A0A"/>
<path d="M57.2578 27.6052C57.3634 27.6052 57.4491 27.5204 57.4491 27.4159C57.4491 27.3113 57.3634 27.2266 57.2578 27.2266C57.1521 27.2266 57.0664 27.3113 57.0664 27.4159C57.0664 27.5204 57.1521 27.6052 57.2578 27.6052Z" fill="#0A0A0A"/>
<path d="M57.8046 28.152C57.9125 28.152 57.9999 28.0655 57.9999 27.9588C57.9999 27.8521 57.9125 27.7656 57.8046 27.7656C57.6968 27.7656 57.6094 27.8521 57.6094 27.9588C57.6094 28.0655 57.6968 28.152 57.8046 28.152Z" fill="#0A0A0A"/>
<path d="M58.3515 28.6797C58.4486 28.6797 58.5272 28.6019 58.5272 28.5059C58.5272 28.4099 58.4486 28.332 58.3515 28.332C58.2545 28.332 58.1758 28.4099 58.1758 28.5059C58.1758 28.6019 58.2545 28.6797 58.3515 28.6797Z" fill="#0A0A0A"/>
<path d="M58.3515 27.5899C58.4486 27.5899 58.5272 27.5121 58.5272 27.416C58.5272 27.32 58.4486 27.2422 58.3515 27.2422C58.2545 27.2422 58.1758 27.32 58.1758 27.416C58.1758 27.5121 58.2545 27.5899 58.3515 27.5899Z" fill="#0A0A0A"/>
<path d="M59.4472 28.6415C59.5227 28.6415 59.5839 28.581 59.5839 28.5063C59.5839 28.4316 59.5227 28.3711 59.4472 28.3711C59.3717 28.3711 59.3105 28.4316 59.3105 28.5063C59.3105 28.581 59.3717 28.6415 59.4472 28.6415Z" fill="#0A0A0A"/>
<path d="M59.4472 27.5517C59.5227 27.5517 59.5839 27.4912 59.5839 27.4165C59.5839 27.3418 59.5227 27.2812 59.4472 27.2812C59.3717 27.2812 59.3105 27.3418 59.3105 27.4165C59.3105 27.4912 59.3717 27.5517 59.4472 27.5517Z" fill="#0A0A0A"/>
<path d="M59.9941 28.0756C60.0588 28.0756 60.1113 28.0237 60.1113 27.9597C60.1113 27.8956 60.0588 27.8438 59.9941 27.8438C59.9294 27.8438 59.877 27.8956 59.877 27.9597C59.877 28.0237 59.9294 28.0756 59.9941 28.0756Z" fill="#0A0A0A"/>
<path d="M58.8984 28.1177C58.9847 28.1177 59.0546 28.0485 59.0546 27.9631C59.0546 27.8778 58.9847 27.8086 58.8984 27.8086C58.8121 27.8086 58.7422 27.8778 58.7422 27.9631C58.7422 28.0485 58.8121 28.1177 58.8984 28.1177Z" fill="#0A0A0A"/>
<path d="M60.539 28.6033C60.5929 28.6033 60.6367 28.5601 60.6367 28.5067C60.6367 28.4534 60.5929 28.4102 60.539 28.4102C60.4851 28.4102 60.4414 28.4534 60.4414 28.5067C60.4414 28.5601 60.4851 28.6033 60.539 28.6033Z" fill="#0A0A0A"/>
<path d="M60.539 27.5213C60.5929 27.5213 60.6367 27.4781 60.6367 27.4247C60.6367 27.3714 60.5929 27.3281 60.539 27.3281C60.4851 27.3281 60.4414 27.3714 60.4414 27.4247C60.4414 27.4781 60.4851 27.5213 60.539 27.5213Z" fill="#0A0A0A"/>
<path d="M61.6404 28.5691C61.6737 28.5691 61.7008 28.5422 61.7008 28.5091C61.7008 28.476 61.6737 28.4492 61.6404 28.4492C61.6071 28.4492 61.5801 28.476 61.5801 28.5091C61.5801 28.5422 61.6071 28.5691 61.6404 28.5691Z" fill="#0A0A0A"/>
<path d="M61.6404 27.487C61.6737 27.487 61.7008 27.4602 61.7008 27.4271C61.7008 27.394 61.6737 27.3672 61.6404 27.3672C61.6071 27.3672 61.5801 27.394 61.5801 27.4271C61.5801 27.4602 61.6071 27.487 61.6404 27.487Z" fill="#0A0A0A"/>
<path d="M62.1867 28.0057C62.2089 28.0057 62.2269 27.9878 62.2269 27.9657C62.2269 27.9437 62.2089 27.9258 62.1867 27.9258C62.1645 27.9258 62.1465 27.9437 62.1465 27.9657C62.1465 27.9878 62.1645 28.0057 62.1867 28.0057Z" fill="#0A0A0A"/>
<path d="M61.0859 28.0413C61.129 28.0413 61.164 28.0067 61.164 27.964C61.164 27.9213 61.129 27.8867 61.0859 27.8867C61.0428 27.8867 61.0078 27.9213 61.0078 27.964C61.0078 28.0067 61.0428 28.0413 61.0859 28.0413Z" fill="#0A0A0A"/>
<path d="M62.7328 28.5278C62.7438 28.5278 62.7527 28.519 62.7527 28.5081C62.7527 28.4971 62.7438 28.4883 62.7328 28.4883C62.7218 28.4883 62.7129 28.4971 62.7129 28.5081C62.7129 28.519 62.7218 28.5278 62.7328 28.5278Z" fill="#0A0A0A"/>
<path d="M62.7328 27.4458C62.7438 27.4458 62.7527 27.437 62.7527 27.426C62.7527 27.4151 62.7438 27.4062 62.7328 27.4062C62.7218 27.4062 62.7129 27.4151 62.7129 27.426C62.7129 27.437 62.7218 27.4458 62.7328 27.4458Z" fill="#0A0A0A"/>
<path d="M51.2355 26.9276C51.2578 26.9276 51.2758 26.9097 51.2758 26.8876C51.2758 26.8655 51.2578 26.8477 51.2355 26.8477C51.2133 26.8477 51.1953 26.8655 51.1953 26.8876C51.1953 26.9097 51.2133 26.9276 51.2355 26.9276Z" fill="#0A0A0A"/>
<path d="M52.3261 26.9553C52.3693 26.9553 52.4043 26.9207 52.4043 26.878C52.4043 26.8354 52.3693 26.8008 52.3261 26.8008C52.283 26.8008 52.248 26.8354 52.248 26.878C52.248 26.9207 52.283 26.9553 52.3261 26.9553Z" fill="#0A0A0A"/>
<path d="M53.4257 26.9974C53.4904 26.9974 53.5429 26.9455 53.5429 26.8815C53.5429 26.8175 53.4904 26.7656 53.4257 26.7656C53.361 26.7656 53.3086 26.8175 53.3086 26.8815C53.3086 26.9455 53.361 26.9974 53.4257 26.9974Z" fill="#0A0A0A"/>
<path d="M55.6191 27.0738C55.7269 27.0738 55.8143 26.9874 55.8143 26.8807C55.8143 26.774 55.7269 26.6875 55.6191 26.6875C55.5112 26.6875 55.4238 26.774 55.4238 26.8807C55.4238 26.9874 55.5112 27.0738 55.6191 27.0738Z" fill="#0A0A0A"/>
<path d="M54.5214 27.0317C54.6077 27.0317 54.6776 26.9625 54.6776 26.8772C54.6776 26.7918 54.6077 26.7227 54.5214 26.7227C54.4352 26.7227 54.3652 26.7918 54.3652 26.8772C54.3652 26.9625 54.4352 27.0317 54.5214 27.0317Z" fill="#0A0A0A"/>
<path d="M56.7109 27.0661C56.8165 27.0661 56.9022 26.9814 56.9022 26.8768C56.9022 26.7723 56.8165 26.6875 56.7109 26.6875C56.6052 26.6875 56.5195 26.7723 56.5195 26.8768C56.5195 26.9814 56.6052 27.0661 56.7109 27.0661Z" fill="#0A0A0A"/>
<path d="M57.8046 27.0738C57.9125 27.0738 57.9999 26.9874 57.9999 26.8807C57.9999 26.774 57.9125 26.6875 57.8046 26.6875C57.6968 26.6875 57.6094 26.774 57.6094 26.8807C57.6094 26.9874 57.6968 27.0738 57.8046 27.0738Z" fill="#0A0A0A"/>
<path d="M59.9941 26.9974C60.0588 26.9974 60.1113 26.9455 60.1113 26.8815C60.1113 26.8175 60.0588 26.7656 59.9941 26.7656C59.9294 26.7656 59.877 26.8175 59.877 26.8815C59.877 26.9455 59.9294 26.9974 59.9941 26.9974Z" fill="#0A0A0A"/>
<path d="M58.8984 27.0317C58.9847 27.0317 59.0546 26.9625 59.0546 26.8772C59.0546 26.7918 58.9847 26.7227 58.8984 26.7227C58.8121 26.7227 58.7422 26.7918 58.7422 26.8772C58.7422 26.9625 58.8121 27.0317 58.8984 27.0317Z" fill="#0A0A0A"/>
<path d="M62.1867 26.9276C62.2089 26.9276 62.2269 26.9097 62.2269 26.8876C62.2269 26.8655 62.2089 26.8477 62.1867 26.8477C62.1645 26.8477 62.1465 26.8655 62.1465 26.8876C62.1465 26.9097 62.1645 26.9276 62.1867 26.9276Z" fill="#0A0A0A"/>
<path d="M61.0859 26.9553C61.129 26.9553 61.164 26.9207 61.164 26.878C61.164 26.8354 61.129 26.8008 61.0859 26.8008C61.0428 26.8008 61.0078 26.8354 61.0078 26.878C61.0078 26.9207 61.0428 26.9553 61.0859 26.9553Z" fill="#0A0A0A"/>
<path d="M50.6898 30.6958C50.7008 30.6958 50.7097 30.687 50.7097 30.676C50.7097 30.6651 50.7008 30.6562 50.6898 30.6562C50.6788 30.6562 50.6699 30.6651 50.6699 30.676C50.6699 30.687 50.6788 30.6958 50.6898 30.6958Z" fill="#0A0A0A"/>
<path d="M50.6898 29.606C50.7008 29.606 50.7097 29.5971 50.7097 29.5862C50.7097 29.5753 50.7008 29.5664 50.6898 29.5664C50.6788 29.5664 50.6699 29.5753 50.6699 29.5862C50.6699 29.5971 50.6788 29.606 50.6898 29.606Z" fill="#0A0A0A"/>
<path d="M51.2355 30.1698C51.2578 30.1698 51.2758 30.1519 51.2758 30.1298C51.2758 30.1077 51.2578 30.0898 51.2355 30.0898C51.2133 30.0898 51.1953 30.1077 51.1953 30.1298C51.1953 30.1519 51.2133 30.1698 51.2355 30.1698Z" fill="#0A0A0A"/>
<path d="M51.783 30.737C51.8163 30.737 51.8433 30.7102 51.8433 30.6771C51.8433 30.644 51.8163 30.6172 51.783 30.6172C51.7497 30.6172 51.7227 30.644 51.7227 30.6771C51.7227 30.7102 51.7497 30.737 51.783 30.737Z" fill="#0A0A0A"/>
<path d="M51.783 29.6472C51.8163 29.6472 51.8433 29.6204 51.8433 29.5873C51.8433 29.5542 51.8163 29.5273 51.783 29.5273C51.7497 29.5273 51.7227 29.5542 51.7227 29.5873C51.7227 29.6204 51.7497 29.6472 51.783 29.6472Z" fill="#0A0A0A"/>
<path d="M52.3261 30.2014C52.3693 30.2014 52.4043 30.1668 52.4043 30.1241C52.4043 30.0815 52.3693 30.0469 52.3261 30.0469C52.283 30.0469 52.248 30.0815 52.248 30.1241C52.248 30.1668 52.283 30.2014 52.3261 30.2014Z" fill="#0A0A0A"/>
<path d="M52.8769 30.7596C52.9308 30.7596 52.9745 30.7163 52.9745 30.663C52.9745 30.6096 52.9308 30.5664 52.8769 30.5664C52.823 30.5664 52.7793 30.6096 52.7793 30.663C52.7793 30.7163 52.823 30.7596 52.8769 30.7596Z" fill="#0A0A0A"/>
<path d="M52.8769 29.6815C52.9308 29.6815 52.9745 29.6382 52.9745 29.5849C52.9745 29.5315 52.9308 29.4883 52.8769 29.4883C52.823 29.4883 52.7793 29.5315 52.7793 29.5849C52.7793 29.6382 52.823 29.6815 52.8769 29.6815Z" fill="#0A0A0A"/>
<path d="M53.4257 30.2435C53.4904 30.2435 53.5429 30.1916 53.5429 30.1276C53.5429 30.0636 53.4904 30.0117 53.4257 30.0117C53.361 30.0117 53.3086 30.0636 53.3086 30.1276C53.3086 30.1916 53.361 30.2435 53.4257 30.2435Z" fill="#0A0A0A"/>
<path d="M53.9726 30.7865C54.0373 30.7865 54.0898 30.7346 54.0898 30.6706C54.0898 30.6066 54.0373 30.5547 53.9726 30.5547C53.9079 30.5547 53.8555 30.6066 53.8555 30.6706C53.8555 30.7346 53.9079 30.7865 53.9726 30.7865Z" fill="#0A0A0A"/>
<path d="M53.9726 29.7197C54.0481 29.7197 54.1093 29.6591 54.1093 29.5844C54.1093 29.5098 54.0481 29.4492 53.9726 29.4492C53.8971 29.4492 53.8359 29.5098 53.8359 29.5844C53.8359 29.6591 53.8971 29.7197 53.9726 29.7197Z" fill="#0A0A0A"/>
<path d="M55.0663 30.8552C55.172 30.8552 55.2577 30.7704 55.2577 30.6659C55.2577 30.5613 55.172 30.4766 55.0663 30.4766C54.9607 30.4766 54.875 30.5613 54.875 30.6659C54.875 30.7704 54.9607 30.8552 55.0663 30.8552Z" fill="#0A0A0A"/>
<path d="M55.0663 29.7579C55.1634 29.7579 55.2421 29.68 55.2421 29.584C55.2421 29.488 55.1634 29.4102 55.0663 29.4102C54.9693 29.4102 54.8906 29.488 54.8906 29.584C54.8906 29.68 54.9693 29.7579 55.0663 29.7579Z" fill="#0A0A0A"/>
<path d="M55.6191 30.316C55.7269 30.316 55.8143 30.2295 55.8143 30.1229C55.8143 30.0162 55.7269 29.9297 55.6191 29.9297C55.5112 29.9297 55.4238 30.0162 55.4238 30.1229C55.4238 30.2295 55.5112 30.316 55.6191 30.316Z" fill="#0A0A0A"/>
<path d="M54.5214 30.2778C54.6077 30.2778 54.6776 30.2086 54.6776 30.1233C54.6776 30.0379 54.6077 29.9688 54.5214 29.9688C54.4352 29.9688 54.3652 30.0379 54.3652 30.1233C54.3652 30.2086 54.4352 30.2778 54.5214 30.2778Z" fill="#0A0A0A"/>
<path d="M56.164 30.8513C56.2697 30.8513 56.3553 30.7665 56.3553 30.662C56.3553 30.5574 56.2697 30.4727 56.164 30.4727C56.0583 30.4727 55.9727 30.5574 55.9727 30.662C55.9727 30.7665 56.0583 30.8513 56.164 30.8513Z" fill="#0A0A0A"/>
<path d="M56.164 29.7653C56.2697 29.7653 56.3553 29.6806 56.3553 29.576C56.3553 29.4715 56.2697 29.3867 56.164 29.3867C56.0583 29.3867 55.9727 29.4715 55.9727 29.576C55.9727 29.6806 56.0583 29.7653 56.164 29.7653Z" fill="#0A0A0A"/>
<path d="M56.7109 30.3161C56.8165 30.3161 56.9022 30.2314 56.9022 30.1268C56.9022 30.0223 56.8165 29.9375 56.7109 29.9375C56.6052 29.9375 56.5195 30.0223 56.5195 30.1268C56.5195 30.2314 56.6052 30.3161 56.7109 30.3161Z" fill="#0A0A0A"/>
<path d="M57.2578 30.8552C57.3634 30.8552 57.4491 30.7704 57.4491 30.6659C57.4491 30.5613 57.3634 30.4766 57.2578 30.4766C57.1521 30.4766 57.0664 30.5613 57.0664 30.6659C57.0664 30.7704 57.1521 30.8552 57.2578 30.8552Z" fill="#0A0A0A"/>
<path d="M57.2578 29.7732C57.3634 29.7732 57.4491 29.6884 57.4491 29.5838C57.4491 29.4793 57.3634 29.3945 57.2578 29.3945C57.1521 29.3945 57.0664 29.4793 57.0664 29.5838C57.0664 29.6884 57.1521 29.7732 57.2578 29.7732Z" fill="#0A0A0A"/>
<path d="M57.8046 30.316C57.9125 30.316 57.9999 30.2295 57.9999 30.1229C57.9999 30.0162 57.9125 29.9297 57.8046 29.9297C57.6968 29.9297 57.6094 30.0162 57.6094 30.1229C57.6094 30.2295 57.6968 30.316 57.8046 30.316Z" fill="#0A0A0A"/>
<path d="M58.3515 30.8399C58.4486 30.8399 58.5272 30.7621 58.5272 30.666C58.5272 30.57 58.4486 30.4922 58.3515 30.4922C58.2545 30.4922 58.1758 30.57 58.1758 30.666C58.1758 30.7621 58.2545 30.8399 58.3515 30.8399Z" fill="#0A0A0A"/>
<path d="M58.3515 29.7579C58.4486 29.7579 58.5272 29.68 58.5272 29.584C58.5272 29.488 58.4486 29.4102 58.3515 29.4102C58.2545 29.4102 58.1758 29.488 58.1758 29.584C58.1758 29.68 58.2545 29.7579 58.3515 29.7579Z" fill="#0A0A0A"/>
<path d="M59.4472 30.8056C59.5227 30.8056 59.5839 30.7451 59.5839 30.6704C59.5839 30.5957 59.5227 30.5352 59.4472 30.5352C59.3717 30.5352 59.3105 30.5957 59.3105 30.6704C59.3105 30.7451 59.3717 30.8056 59.4472 30.8056Z" fill="#0A0A0A"/>
<path d="M59.4472 29.7197C59.5227 29.7197 59.5839 29.6591 59.5839 29.5844C59.5839 29.5098 59.5227 29.4492 59.4472 29.4492C59.3717 29.4492 59.3105 29.5098 59.3105 29.5844C59.3105 29.6591 59.3717 29.7197 59.4472 29.7197Z" fill="#0A0A0A"/>
<path d="M59.9941 30.2435C60.0588 30.2435 60.1113 30.1916 60.1113 30.1276C60.1113 30.0636 60.0588 30.0117 59.9941 30.0117C59.9294 30.0117 59.877 30.0636 59.877 30.1276C59.877 30.1916 59.9294 30.2435 59.9941 30.2435Z" fill="#0A0A0A"/>
<path d="M58.8984 30.2778C58.9847 30.2778 59.0546 30.2086 59.0546 30.1233C59.0546 30.0379 58.9847 29.9688 58.8984 29.9688C58.8121 29.9688 58.7422 30.0379 58.7422 30.1233C58.7422 30.2086 58.8121 30.2778 58.8984 30.2778Z" fill="#0A0A0A"/>
<path d="M60.539 30.7596C60.5929 30.7596 60.6367 30.7163 60.6367 30.663C60.6367 30.6096 60.5929 30.5664 60.539 30.5664C60.4851 30.5664 60.4414 30.6096 60.4414 30.663C60.4414 30.7163 60.4851 30.7596 60.539 30.7596Z" fill="#0A0A0A"/>
<path d="M60.539 29.6815C60.5929 29.6815 60.6367 29.6382 60.6367 29.5849C60.6367 29.5315 60.5929 29.4883 60.539 29.4883C60.4851 29.4883 60.4414 29.5315 60.4414 29.5849C60.4414 29.6382 60.4851 29.6815 60.539 29.6815Z" fill="#0A0A0A"/>
<path d="M61.6404 30.737C61.6737 30.737 61.7008 30.7102 61.7008 30.6771C61.7008 30.644 61.6737 30.6172 61.6404 30.6172C61.6071 30.6172 61.5801 30.644 61.5801 30.6771C61.5801 30.7102 61.6071 30.737 61.6404 30.737Z" fill="#0A0A0A"/>
<path d="M61.6404 29.6472C61.6737 29.6472 61.7008 29.6204 61.7008 29.5873C61.7008 29.5542 61.6737 29.5273 61.6404 29.5273C61.6071 29.5273 61.5801 29.5542 61.5801 29.5873C61.5801 29.6204 61.6071 29.6472 61.6404 29.6472Z" fill="#0A0A0A"/>
<path d="M62.1867 30.1698C62.2089 30.1698 62.2269 30.1519 62.2269 30.1298C62.2269 30.1077 62.2089 30.0898 62.1867 30.0898C62.1645 30.0898 62.1465 30.1077 62.1465 30.1298C62.1465 30.1519 62.1645 30.1698 62.1867 30.1698Z" fill="#0A0A0A"/>
<path d="M61.0859 30.2014C61.129 30.2014 61.164 30.1668 61.164 30.1241C61.164 30.0815 61.129 30.0469 61.0859 30.0469C61.0428 30.0469 61.0078 30.0815 61.0078 30.1241C61.0078 30.1668 61.0428 30.2014 61.0859 30.2014Z" fill="#0A0A0A"/>
<path d="M62.7328 30.6958C62.7438 30.6958 62.7527 30.687 62.7527 30.676C62.7527 30.6651 62.7438 30.6562 62.7328 30.6562C62.7218 30.6562 62.7129 30.6651 62.7129 30.676C62.7129 30.687 62.7218 30.6958 62.7328 30.6958Z" fill="#0A0A0A"/>
<path d="M62.7328 29.606C62.7438 29.606 62.7527 29.5971 62.7527 29.5862C62.7527 29.5753 62.7438 29.5664 62.7328 29.5664C62.7218 29.5664 62.7129 29.5753 62.7129 29.5862C62.7129 29.5971 62.7218 29.606 62.7328 29.606Z" fill="#0A0A0A"/>
<path d="M51.2355 29.0838C51.2578 29.0838 51.2758 29.0659 51.2758 29.0439C51.2758 29.0218 51.2578 29.0039 51.2355 29.0039C51.2133 29.0039 51.1953 29.0218 51.1953 29.0439C51.1953 29.0659 51.2133 29.0838 51.2355 29.0838Z" fill="#0A0A0A"/>
<path d="M52.3261 29.1233C52.3693 29.1233 52.4043 29.0887 52.4043 29.046C52.4043 29.0033 52.3693 28.9688 52.3261 28.9688C52.283 28.9688 52.248 29.0033 52.248 29.046C52.248 29.0887 52.283 29.1233 52.3261 29.1233Z" fill="#0A0A0A"/>
<path d="M53.4257 29.1615C53.4904 29.1615 53.5429 29.1096 53.5429 29.0456C53.5429 28.9816 53.4904 28.9297 53.4257 28.9297C53.361 28.9297 53.3086 28.9816 53.3086 29.0456C53.3086 29.1096 53.361 29.1615 53.4257 29.1615Z" fill="#0A0A0A"/>
<path d="M55.6191 29.234C55.7269 29.234 55.8143 29.1475 55.8143 29.0408C55.8143 28.9341 55.7269 28.8477 55.6191 28.8477C55.5112 28.8477 55.4238 28.9341 55.4238 29.0408C55.4238 29.1475 55.5112 29.234 55.6191 29.234Z" fill="#0A0A0A"/>
<path d="M54.5214 29.1997C54.6077 29.1997 54.6776 29.1305 54.6776 29.0452C54.6776 28.9598 54.6077 28.8906 54.5214 28.8906C54.4352 28.8906 54.3652 28.9598 54.3652 29.0452C54.3652 29.1305 54.4352 29.1997 54.5214 29.1997Z" fill="#0A0A0A"/>
<path d="M56.7109 29.2302C56.8165 29.2302 56.9022 29.1454 56.9022 29.0409C56.9022 28.9363 56.8165 28.8516 56.7109 28.8516C56.6052 28.8516 56.5195 28.9363 56.5195 29.0409C56.5195 29.1454 56.6052 29.2302 56.7109 29.2302Z" fill="#0A0A0A"/>
<path d="M57.8046 29.234C57.9125 29.234 57.9999 29.1475 57.9999 29.0408C57.9999 28.9341 57.9125 28.8477 57.8046 28.8477C57.6968 28.8477 57.6094 28.9341 57.6094 29.0408C57.6094 29.1475 57.6968 29.234 57.8046 29.234Z" fill="#0A0A0A"/>
<path d="M59.9941 29.1615C60.0588 29.1615 60.1113 29.1096 60.1113 29.0456C60.1113 28.9816 60.0588 28.9297 59.9941 28.9297C59.9294 28.9297 59.877 28.9816 59.877 29.0456C59.877 29.1096 59.9294 29.1615 59.9941 29.1615Z" fill="#0A0A0A"/>
<path d="M58.8984 29.1997C58.9847 29.1997 59.0546 29.1305 59.0546 29.0452C59.0546 28.9598 58.9847 28.8906 58.8984 28.8906C58.8121 28.8906 58.7422 28.9598 58.7422 29.0452C58.7422 29.1305 58.8121 29.1997 58.8984 29.1997Z" fill="#0A0A0A"/>
<path d="M62.1867 29.0838C62.2089 29.0838 62.2269 29.0659 62.2269 29.0439C62.2269 29.0218 62.2089 29.0039 62.1867 29.0039C62.1645 29.0039 62.1465 29.0218 62.1465 29.0439C62.1465 29.0659 62.1645 29.0838 62.1867 29.0838Z" fill="#0A0A0A"/>
<path d="M61.0859 29.1233C61.129 29.1233 61.164 29.0887 61.164 29.046C61.164 29.0033 61.129 28.9688 61.0859 28.9688C61.0428 28.9688 61.0078 29.0033 61.0078 29.046C61.0078 29.0887 61.0428 29.1233 61.0859 29.1233Z" fill="#0A0A0A"/>
<path d="M122.693 25.2109H128.035L128.024 26.2193H123.818V28.8851H127.602V29.8935H123.818V33.3242H122.693V25.2109Z" fill="#0A0A0A"/>
<path d="M129.342 25.2109H130.677L133.676 30.9134L136.652 25.2109H137.999V33.3242H136.945L136.933 26.8452L134.016 32.4665H133.325L130.384 26.8452V33.3242H129.342V25.2109Z" fill="#0A0A0A"/>
<path d="M120.293 33.3228C120.623 33.3228 120.89 33.0582 120.89 32.7317C120.89 32.4053 120.623 32.1406 120.293 32.1406C119.963 32.1406 119.695 32.4053 119.695 32.7317C119.695 33.0582 119.963 33.3228 120.293 33.3228Z" fill="#0A0A0A"/>
<path fill-rule="evenodd" clip-rule="evenodd" d="M137.5 22C145.508 22 152 17.0751 152 11C152 4.92487 145.508 0 137.5 0C129.492 0 123 4.92487 123 11C123 13.1428 123.808 15.1425 125.205 16.8335L123.904 20.0874C123.83 20.2738 123.994 20.4675 124.19 20.4243L128.318 19.5139C130.818 21.0677 134.016 22 137.5 22Z" fill="#178F8A"/>
<path d="M129.805 17.0235C129.446 16.9098 129.246 16.6943 129.204 16.3772C129.191 16.278 129.192 16.1769 129.209 16.0738C129.241 15.7064 129.316 15.1768 129.436 14.4849C129.566 13.7917 129.692 13.2654 129.816 12.9059C129.869 12.7777 129.907 12.6466 129.93 12.5124C129.952 12.3783 129.966 12.2907 129.97 12.2497C129.996 12.0647 130.012 11.9567 130.018 11.9256L129.983 11.7789C129.978 11.7393 129.983 11.6983 129.997 11.656C130.012 11.6137 130.041 11.5645 130.084 11.5083C130.206 11.3709 130.324 11.1181 130.436 10.7501L130.786 9.05409L130.897 8.52478C130.901 8.48381 130.912 8.41178 130.928 8.3087C130.945 8.20561 130.95 8.13424 130.945 8.09459C130.94 8.05494 130.927 8.03644 130.908 8.03908C130.831 8.06947 130.674 8.10547 130.438 8.14709C130.321 8.18276 130.234 8.20952 130.176 8.22735C130.117 8.23528 130.073 8.24618 130.044 8.26005L129.94 8.27392C129.752 8.29902 129.648 8.24218 129.63 8.10341C129.636 7.92102 129.673 7.74459 129.741 7.5741C129.819 7.40229 129.927 7.30219 130.064 7.27378L130.626 7.0627C130.713 7.03099 130.835 7.00456 130.994 6.98343C131.133 6.96494 131.278 6.96065 131.431 6.97058C131.539 6.87543 131.595 6.79746 131.597 6.73666C131.614 6.56287 131.685 6.41716 131.811 6.29955C131.936 6.18193 132.073 6.11322 132.222 6.09341C132.341 6.07756 132.445 6.09904 132.533 6.15786C132.621 6.20677 132.673 6.29565 132.69 6.42451C132.698 6.48399 132.699 6.52925 132.693 6.56031C132.694 6.57022 132.697 6.59005 132.701 6.61979C132.703 6.63961 132.734 6.64556 132.794 6.63764C132.893 6.62443 133.178 6.53095 133.649 6.35719C133.727 6.33671 133.86 6.30897 134.047 6.27396C134.242 6.22772 134.405 6.19601 134.534 6.17884C134.712 6.15506 134.858 6.15078 134.971 6.16599C135.057 6.13428 135.135 6.1138 135.205 6.10455C135.274 6.09531 135.333 6.08242 135.381 6.06591C135.55 6.04345 135.652 6.01472 135.687 5.9797C135.779 5.98763 135.881 5.99425 135.993 5.99955C136.113 5.99361 136.199 5.99725 136.251 6.01047C136.304 6.02369 136.352 6.04253 136.395 6.06698C136.43 6.10267 136.45 6.13538 136.454 6.16512C136.458 6.19485 136.455 6.21534 136.447 6.22657L136.415 6.21567C136.425 6.21435 136.441 6.22228 136.463 6.23946C136.495 6.24541 136.527 6.26127 136.561 6.28705C136.645 6.31613 136.698 6.40997 136.719 6.56857C136.735 6.68752 136.731 6.80911 136.707 6.93334C136.705 6.99414 136.686 7.04204 136.651 7.07706C136.624 7.10085 136.546 7.12629 136.419 7.15337C136.29 7.17054 136.121 7.18804 135.911 7.20586C135.528 7.20649 135.212 7.22332 134.965 7.25634C134.618 7.30257 134.089 7.42345 133.379 7.619C133.202 7.65269 133.036 7.69992 132.883 7.76071C132.74 7.82017 132.649 7.8575 132.61 7.87269C132.561 7.8793 132.496 7.96355 132.417 8.12544C132.338 8.28733 132.274 8.48756 132.225 8.72611C132.177 8.82324 132.051 9.27887 131.847 10.093C131.683 10.6798 131.601 10.9732 131.601 10.9732C131.725 10.997 131.956 10.9864 132.293 10.9415C132.739 10.8821 133.383 10.7559 134.225 10.563C134.601 10.4322 134.86 10.3675 135.001 10.3688C135.092 10.3668 135.175 10.4213 135.25 10.5324C135.334 10.6322 135.385 10.7514 135.403 10.8902C135.417 10.9893 135.409 11.0812 135.38 11.1658C135.351 11.2504 135.304 11.3171 135.24 11.366C135.049 11.5226 134.631 11.6792 133.986 11.8357C133.555 11.9335 132.958 12.0332 132.195 12.1349C131.788 12.1891 131.544 12.2115 131.462 12.2023C131.444 12.2148 131.418 12.2485 131.385 12.3034C131.362 12.3569 131.355 12.4184 131.364 12.4877C131.229 12.8386 131.054 13.4522 130.838 14.3284C130.631 15.2033 130.54 15.73 130.564 15.9084C130.518 16.0961 130.491 16.3066 130.482 16.5398C130.477 16.5808 130.469 16.6373 130.459 16.7093C130.448 16.7813 130.434 16.8286 130.417 16.8511C130.407 17.0037 130.318 17.0913 130.149 17.1137C130.011 17.1322 129.896 17.1021 129.805 17.0235Z" fill="white"/>
<path d="M138.374 9.17786C138.266 9.12168 138.174 9.04304 138.1 8.94193C138.026 8.84082 137.978 8.74136 137.955 8.64356C137.932 8.54575 137.934 8.48496 137.961 8.46117C138.011 8.38386 138.058 8.28177 138.101 8.15489C138.145 8.02802 138.178 7.93782 138.202 7.8843C138.257 7.69531 138.304 7.55786 138.343 7.47196C138.394 7.32394 138.449 7.24101 138.507 7.22317C138.581 7.17296 138.643 7.14455 138.692 7.13794C138.821 7.12077 138.966 7.14689 139.126 7.21628C139.297 7.28436 139.43 7.37259 139.525 7.48097C139.615 7.63033 139.669 7.76448 139.684 7.88343C139.716 8.12132 139.637 8.39919 139.448 8.71703C139.366 8.8591 139.26 8.97407 139.13 9.06195C139.001 9.14983 138.867 9.20301 138.728 9.22151C138.589 9.24 138.471 9.22545 138.374 9.17786ZM137.563 15.3541C137.405 15.2339 137.303 14.9953 137.255 14.6384C137.23 14.4501 137.236 14.3031 137.272 14.1974C137.266 14.1478 137.268 14.087 137.278 14.015C137.289 13.9429 137.293 13.897 137.29 13.8772C137.272 13.819 137.29 13.6502 137.344 13.3707C137.427 13.0872 137.521 12.656 137.625 12.0771C137.74 11.497 137.816 11.0833 137.853 10.8361C137.847 10.7866 137.861 10.7443 137.897 10.7093C137.931 10.6643 137.988 10.6316 138.066 10.6112C138.169 10.557 138.315 10.588 138.502 10.7044C138.687 10.8108 138.846 10.941 138.977 11.0949C139.045 11.1465 139.085 11.2218 139.098 11.321C139.118 11.4696 139.082 11.6864 138.988 11.9712C138.953 12.0868 138.922 12.2273 138.893 12.3925C138.875 12.5563 138.86 12.7096 138.848 12.8524C138.765 13.1359 138.704 13.3962 138.665 13.6335C138.652 13.7663 138.646 13.868 138.645 13.9388C138.625 14.3148 138.592 14.5612 138.547 14.6782C138.521 14.9339 138.461 15.1335 138.37 15.2769C138.276 15.4104 138.16 15.4864 138.022 15.5048C137.853 15.5273 137.7 15.4771 137.563 15.3541Z" fill="white"/>
<path d="M142.42 14.9793C142.257 14.9707 142.063 14.8705 141.835 14.6789C141.607 14.4773 141.457 14.3005 141.386 14.1485C141.384 14.1287 141.371 14.1102 141.349 14.093C141.325 14.0659 141.307 14.0481 141.296 14.0395C141.252 14.015 141.211 13.8541 141.171 13.5568C141.139 13.3189 141.116 13.0697 141.102 12.8094C141.097 12.5477 141.104 12.3349 141.123 12.171L141.285 11.3473L141.414 10.7248L141.701 9.80897L141.084 9.72467C141.014 9.724 140.949 9.69723 140.892 9.64436C140.844 9.59017 140.817 9.53829 140.811 9.48873C140.8 9.40943 140.825 9.29016 140.884 9.13091C140.954 8.97033 141.013 8.88674 141.063 8.88014C141.094 8.88609 141.174 8.88048 141.302 8.86331C141.6 8.82368 141.821 8.7791 141.966 8.72955C142.059 8.67669 142.118 8.58814 142.142 8.46391C142.177 8.34827 142.215 8.25246 142.255 8.17646C142.294 8.09056 142.332 7.9997 142.37 7.90389C142.392 7.84045 142.425 7.74529 142.468 7.61842C142.52 7.48031 142.586 7.32536 142.664 7.15355C142.679 7.12117 142.715 7.04584 142.77 6.92756C142.823 6.79936 142.894 6.68901 142.983 6.59651C143.036 6.53902 143.11 6.4888 143.205 6.44586C143.299 6.393 143.395 6.35997 143.494 6.34676C143.673 6.32298 143.823 6.35339 143.945 6.43799C144.053 6.56487 144.111 6.66301 144.121 6.7324C144.131 6.8117 144.105 6.92106 144.043 7.06049C144 7.18736 143.922 7.35917 143.809 7.57591C143.714 7.77018 143.644 7.9258 143.599 8.04276C143.517 8.18483 143.481 8.29055 143.49 8.35994C143.499 8.42933 143.568 8.45544 143.697 8.43827C143.836 8.41977 144.065 8.359 144.384 8.25594C144.432 8.23942 144.501 8.22522 144.59 8.21333C144.828 8.18163 145.006 8.22856 145.124 8.35413C145.241 8.47969 145.314 8.64655 145.342 8.85471C145.36 8.99349 145.322 9.08435 145.227 9.12729C145.141 9.16892 144.935 9.21152 144.608 9.25511C144.298 9.34694 143.974 9.41531 143.637 9.46022C143.577 9.46814 143.509 9.48234 143.431 9.50282C143.361 9.51207 143.288 9.53189 143.211 9.56228C143.135 9.59267 143.079 9.63033 143.045 9.67527C143.02 9.71888 142.994 9.78793 142.967 9.88243C142.941 9.91613 142.887 10.0394 142.804 10.2521C142.704 10.5581 142.637 10.7434 142.606 10.8082C142.448 11.5959 142.354 12.4004 142.322 13.2218C142.32 13.2826 142.325 13.3576 142.337 13.4468C142.354 13.5757 142.406 13.6646 142.493 13.7135C142.589 13.7512 142.761 13.7535 143.009 13.7205C143.286 13.6835 143.545 13.6138 143.783 13.5114C144.063 13.3429 144.272 13.2041 144.409 13.0951C144.491 13.0337 144.565 12.9785 144.629 12.9296C144.701 12.8695 144.751 12.8275 144.778 12.8037C144.807 12.7191 144.873 12.7205 144.976 12.8077C145.088 12.8936 145.177 12.9977 145.244 13.12C145.268 13.2984 145.255 13.4666 145.205 13.6245C145.155 13.7725 145.001 13.9443 144.745 14.1399C144.454 14.3804 144.146 14.5677 143.821 14.7018C143.496 14.836 143.184 14.9228 142.887 14.9625C142.718 14.9849 142.563 14.9905 142.42 14.9793Z" fill="white"/>
</svg>
